<svg width="1053" height="512" xmlns="http://www.w3.org/2000/svg" xmlns:xlink="http://www.w3.org/1999/xlink" overflow="hidden"><defs><clipPath id="clip0"><path d="M66 149 1119 149 1119 661 66 661Z" fill-rule="evenodd" clip-rule="evenodd"/></clipPath><linearGradient x1="360.053" y1="171.829" x2="360.053" y2="197.429" gradientUnits="userSpaceOnUse" spreadMethod="reflect" id="fill1"><stop offset="0" stop-color="#1A1A1A"/><stop offset="0.02917" stop-color="#1A1A1A"/><stop offset="0.3" stop-color="#1A1A1A"/><stop offset="1" stop-color="#1A1A1A"/></linearGradient><linearGradient x1="141.131" y1="219.861" x2="141.131" y2="239.061" gradientUnits="userSpaceOnUse" spreadMethod="reflect" id="fill2"><stop offset="0" stop-color="#1A1A1A"/><stop offset="0.02917" stop-color="#1A1A1A"/><stop offset="0.3" stop-color="#1A1A1A"/><stop offset="1" stop-color="#1A1A1A"/></linearGradient><linearGradient x1="112.868" y1="239.061" x2="112.868" y2="258.261" gradientUnits="userSpaceOnUse" spreadMethod="reflect" id="fill3"><stop offset="0" stop-color="#1A1A1A"/><stop offset="0.02917" stop-color="#1A1A1A"/><stop offset="0.3" stop-color="#1A1A1A"/><stop offset="1" stop-color="#1A1A1A"/></linearGradient><linearGradient x1="117.064" y1="508.224" x2="117.064" y2="527.424" gradientUnits="userSpaceOnUse" spreadMethod="reflect" id="fill4"><stop offset="0" stop-color="#1A1A1A"/><stop offset="0.02917" stop-color="#1A1A1A"/><stop offset="0.3" stop-color="#1A1A1A"/><stop offset="1" stop-color="#1A1A1A"/></linearGradient><linearGradient x1="125.648" y1="527.424" x2="125.648" y2="546.624" gradientUnits="userSpaceOnUse" spreadMethod="reflect" id="fill5"><stop offset="0" stop-color="#1A1A1A"/><stop offset="0.02917" stop-color="#1A1A1A"/><stop offset="0.3" stop-color="#1A1A1A"/><stop offset="1" stop-color="#1A1A1A"/></linearGradient><linearGradient x1="120.133" y1="293.953" x2="120.133" y2="313.153" gradientUnits="userSpaceOnUse" spreadMethod="reflect" id="fill6"><stop offset="0" stop-color="#1A1A1A"/><stop offset="0.02917" stop-color="#1A1A1A"/><stop offset="0.3" stop-color="#1A1A1A"/><stop offset="1" stop-color="#1A1A1A"/></linearGradient><linearGradient x1="125.319" y1="388.221" x2="125.319" y2="407.421" gradientUnits="userSpaceOnUse" spreadMethod="reflect" id="fill7"><stop offset="0" stop-color="#1A1A1A"/><stop offset="0.02917" stop-color="#1A1A1A"/><stop offset="0.3" stop-color="#1A1A1A"/><stop offset="1" stop-color="#1A1A1A"/></linearGradient></defs><g clip-path="url(#clip0)" transform="translate(-66 -149)"><rect x="284" y="361" width="215" height="76" fill="#01BCF3"/><text fill="#1A1A1A" font-family="Segoe UI,Segoe UI_MSFontService,sans-serif" font-weight="400" font-size="16" transform="translate(303.014 406)">Azure AD endpoint (v1.0)</text><rect x="284" y="446" width="215" height="76" fill="#01BCF3"/><text fill="#1A1A1A" font-family="Segoe UI,Segoe UI_MSFontService,sans-serif" font-weight="400" font-size="16" transform="translate(335.905 471)">Active Directory<tspan x="-12.4667" y="19">Federation Services</tspan><tspan x="30.04" y="38">(AD FS)</tspan></text><path d="M482.029 190.286C482.446 190.286 482.8 190.423 483.09 190.696 483.381 190.969 483.526 191.298 483.526 191.68 483.526 192.056 483.381 192.379 483.09 192.649 482.8 192.919 482.446 193.054 482.029 193.054 481.619 193.054 481.27 192.919 480.983 192.649 480.696 192.379 480.552 192.056 480.552 191.68 480.552 191.298 480.696 190.969 480.983 190.696 481.27 190.423 481.619 190.286 482.029 190.286ZM418.223 183.98C417.375 183.98 416.693 184.28 416.177 184.882 415.661 185.484 415.403 186.236 415.403 187.138L415.403 188.44C415.403 189.206 415.648 189.855 416.136 190.388 416.625 190.922 417.245 191.188 417.997 191.188 418.879 191.188 419.571 190.845 420.074 190.158 420.576 189.471 420.827 188.512 420.827 187.281 420.827 186.249 420.593 185.441 420.125 184.856 419.657 184.272 419.023 183.98 418.223 183.98ZM404.813 183.98C403.883 183.98 403.148 184.304 402.608 184.954 402.068 185.603 401.798 186.499 401.798 187.64 401.798 188.741 402.072 189.607 402.618 190.24 403.165 190.872 403.897 191.188 404.813 191.188 405.749 191.188 406.469 190.877 406.971 190.255 407.474 189.633 407.725 188.748 407.725 187.599 407.725 186.444 407.474 185.552 406.971 184.923 406.469 184.294 405.749 183.98 404.813 183.98ZM353.659 183.98C352.77 183.98 352.071 184.311 351.562 184.974 351.053 185.637 350.798 186.557 350.798 187.733 350.798 188.799 351.043 189.642 351.531 190.26 352.02 190.879 352.678 191.188 353.505 191.188 354.319 191.188 354.978 190.889 355.484 190.291 355.99 189.693 356.243 188.939 356.243 188.03L356.243 186.656C356.243 185.911 356 185.278 355.515 184.759 355.03 184.239 354.411 183.98 353.659 183.98ZM326.813 183.98C325.883 183.98 325.148 184.304 324.608 184.954 324.068 185.603 323.798 186.499 323.798 187.64 323.798 188.741 324.072 189.607 324.618 190.24 325.165 190.872 325.897 191.188 326.813 191.188 327.749 191.188 328.469 190.877 328.971 190.255 329.474 189.633 329.725 188.748 329.725 187.599 329.725 186.444 329.474 185.552 328.971 184.923 328.469 184.294 327.749 183.98 326.813 183.98ZM430.392 183.836C429.709 183.836 429.129 184.086 428.654 184.585 428.179 185.084 427.887 185.736 427.778 186.543L432.638 186.543C432.631 185.689 432.43 185.024 432.033 184.549 431.637 184.074 431.09 183.836 430.392 183.836ZM387.392 183.836C386.709 183.836 386.129 184.086 385.654 184.585 385.179 185.084 384.887 185.736 384.778 186.543L389.638 186.543C389.631 185.689 389.43 185.024 389.033 184.549 388.637 184.074 388.09 183.836 387.392 183.836ZM365.392 183.836C364.709 183.836 364.129 184.086 363.654 184.585 363.179 185.084 362.887 185.736 362.778 186.543L367.638 186.543C367.631 185.689 367.43 185.024 367.033 184.549 366.637 184.074 366.09 183.836 365.392 183.836ZM266.392 183.836C265.709 183.836 265.129 184.086 264.654 184.585 264.179 185.084 263.887 185.736 263.778 186.543L268.638 186.543C268.631 185.689 268.43 185.024 268.033 184.549 267.637 184.074 267.09 183.836 266.392 183.836ZM459.589 182.329 462.173 182.329 464.5 189.671C464.678 190.211 464.787 190.682 464.828 191.086L464.859 191.086C464.921 190.58 465.016 190.122 465.146 189.712L467.587 182.329 470.089 182.329 466.028 192.829 463.454 192.829ZM371.589 182.329 374.173 182.329 376.5 189.671C376.678 190.211 376.787 190.682 376.828 191.086L376.859 191.086C376.921 190.58 377.016 190.122 377.146 189.712L379.587 182.329 382.089 182.329 378.028 192.829 375.454 192.829ZM241.84 182.329 244.219 182.329 244.219 188.358C244.219 190.245 244.947 191.188 246.403 191.188 247.107 191.188 247.686 190.928 248.141 190.409 248.595 189.889 248.823 189.209 248.823 188.368L248.823 182.329 251.201 182.329 251.201 192.829 248.823 192.829 248.823 191.168 248.782 191.168C248.091 192.439 247.018 193.075 245.562 193.075 243.08 193.075 241.84 191.585 241.84 188.604ZM231.347 182.329 239.797 182.329 239.797 183.323 234.126 190.973 239.776 190.973 239.776 192.829 230.794 192.829 230.794 191.937 236.587 184.185 231.347 184.185ZM442.151 182.144C442.582 182.144 442.91 182.209 443.136 182.339L443.136 184.595C442.848 184.369 442.435 184.257 441.895 184.257 441.191 184.257 440.603 184.574 440.131 185.21 439.659 185.846 439.424 186.711 439.424 187.804L439.424 192.829 437.045 192.829 437.045 182.329 439.424 182.329 439.424 184.492 439.465 184.492C439.697 183.754 440.054 183.178 440.536 182.765 441.018 182.351 441.556 182.144 442.151 182.144ZM340.151 182.144C340.582 182.144 340.91 182.209 341.136 182.339L341.136 184.595C340.848 184.369 340.435 184.257 339.895 184.257 339.191 184.257 338.603 184.574 338.131 185.21 337.659 185.846 337.424 186.711 337.424 187.804L337.424 192.829 335.045 192.829 335.045 182.329 337.424 182.329 337.424 184.492 337.465 184.492C337.697 183.754 338.054 183.178 338.536 182.765 339.018 182.351 339.556 182.144 340.151 182.144ZM260.151 182.144C260.582 182.144 260.91 182.209 261.136 182.339L261.136 184.595C260.848 184.369 260.435 184.257 259.895 184.257 259.191 184.257 258.603 184.574 258.131 185.21 257.659 185.846 257.424 186.711 257.424 187.804L257.424 192.829 255.045 192.829 255.045 182.329 257.424 182.329 257.424 184.492 257.465 184.492C257.697 183.754 258.054 183.178 258.536 182.765 259.018 182.351 259.556 182.144 260.151 182.144ZM448.685 182.083C449.656 182.083 450.524 182.23 451.289 182.524L451.289 184.605C450.551 184.099 449.703 183.846 448.746 183.846 448.446 183.846 448.174 183.877 447.931 183.939 447.689 184 447.482 184.086 447.311 184.195 447.14 184.304 447.007 184.436 446.911 184.59 446.815 184.744 446.767 184.913 446.767 185.097 446.767 185.323 446.815 185.514 446.911 185.672 447.007 185.829 447.148 185.967 447.336 186.087 447.524 186.206 447.75 186.316 448.013 186.415 448.276 186.514 448.579 186.622 448.921 186.738 449.372 186.923 449.777 187.111 450.136 187.302 450.495 187.493 450.801 187.71 451.054 187.953 451.306 188.196 451.501 188.476 451.638 188.794 451.775 189.112 451.843 189.489 451.843 189.927 451.843 190.46 451.72 190.925 451.474 191.321 451.228 191.718 450.9 192.046 450.49 192.306 450.079 192.566 449.606 192.759 449.069 192.885 448.533 193.012 447.967 193.075 447.372 193.075 446.224 193.075 445.229 192.883 444.388 192.501L444.388 190.296C445.277 190.973 446.258 191.311 447.331 191.311 448.767 191.311 449.485 190.887 449.485 190.04 449.485 189.8 449.423 189.597 449.3 189.43 449.177 189.262 449.011 189.113 448.803 188.984 448.594 188.854 448.348 188.737 448.064 188.635 447.781 188.532 447.465 188.416 447.116 188.286 446.685 188.115 446.297 187.934 445.952 187.743 445.607 187.551 445.32 187.334 445.091 187.092 444.862 186.849 444.689 186.574 444.573 186.266 444.457 185.959 444.399 185.6 444.399 185.19 444.399 184.684 444.518 184.238 444.758 183.851 444.997 183.465 445.318 183.141 445.721 182.877 446.125 182.614 446.583 182.416 447.096 182.283 447.608 182.149 448.138 182.083 448.685 182.083ZM430.423 182.083C431.859 182.083 432.97 182.544 433.756 183.467 434.542 184.39 434.935 185.672 434.935 187.312L434.935 188.225 427.778 188.225C427.805 189.195 428.104 189.944 428.675 190.47 429.246 190.997 430.03 191.26 431.028 191.26 432.149 191.26 433.178 190.925 434.115 190.255L434.115 192.173C433.158 192.774 431.893 193.075 430.321 193.075 428.776 193.075 427.564 192.598 426.686 191.644 425.807 190.691 425.368 189.349 425.368 187.62 425.368 185.986 425.852 184.655 426.819 183.626 427.786 182.597 428.988 182.083 430.423 182.083ZM419.033 182.083C420.366 182.083 421.405 182.551 422.15 183.487 422.895 184.424 423.268 185.682 423.268 187.261 423.268 189.011 422.847 190.412 422.007 191.465 421.166 192.518 420.017 193.044 418.561 193.044 417.221 193.044 416.189 192.456 415.465 191.28L415.424 191.28 415.424 197.658 413.045 197.658 413.045 182.329 415.424 182.329 415.424 184.174 415.465 184.174C416.278 182.78 417.468 182.083 419.033 182.083ZM404.956 182.083C406.597 182.083 407.875 182.565 408.791 183.528 409.707 184.492 410.165 185.829 410.165 187.538 410.165 189.213 409.671 190.554 408.684 191.562 407.696 192.571 406.368 193.075 404.7 193.075 403.08 193.075 401.786 192.584 400.819 191.603 399.852 190.622 399.368 189.322 399.368 187.702 399.368 185.938 399.872 184.561 400.88 183.569 401.889 182.578 403.247 182.083 404.956 182.083ZM387.423 182.083C388.859 182.083 389.97 182.544 390.756 183.467 391.542 184.39 391.935 185.672 391.935 187.312L391.935 188.225 384.778 188.225C384.805 189.195 385.104 189.944 385.675 190.47 386.246 190.997 387.03 191.26 388.028 191.26 389.149 191.26 390.178 190.925 391.115 190.255L391.115 192.173C390.158 192.774 388.893 193.075 387.321 193.075 385.776 193.075 384.564 192.598 383.686 191.644 382.807 190.691 382.368 189.349 382.368 187.62 382.368 185.986 382.852 184.655 383.819 183.626 384.786 182.597 385.988 182.083 387.423 182.083ZM365.423 182.083C366.859 182.083 367.97 182.544 368.756 183.467 369.542 184.39 369.935 185.672 369.935 187.312L369.935 188.225 362.778 188.225C362.805 189.195 363.104 189.944 363.675 190.47 364.246 190.997 365.03 191.26 366.028 191.26 367.149 191.26 368.178 190.925 369.115 190.255L369.115 192.173C368.158 192.774 366.893 193.075 365.321 193.075 363.776 193.075 362.564 192.598 361.686 191.644 360.807 190.691 360.368 189.349 360.368 187.62 360.368 185.986 360.852 184.655 361.819 183.626 362.786 182.597 363.988 182.083 365.423 182.083ZM326.956 182.083C328.597 182.083 329.875 182.565 330.791 183.528 331.707 184.492 332.165 185.829 332.165 187.538 332.165 189.213 331.671 190.554 330.684 191.562 329.696 192.571 328.368 193.075 326.7 193.075 325.08 193.075 323.786 192.584 322.819 191.603 321.852 190.622 321.368 189.322 321.368 187.702 321.368 185.938 321.872 184.561 322.88 183.569 323.889 182.578 325.247 182.083 326.956 182.083ZM266.423 182.083C267.859 182.083 268.97 182.544 269.756 183.467 270.542 184.39 270.935 185.672 270.935 187.312L270.935 188.225 263.778 188.225C263.805 189.195 264.104 189.944 264.675 190.47 265.246 190.997 266.03 191.26 267.028 191.26 268.149 191.26 269.178 190.925 270.115 190.255L270.115 192.173C269.158 192.774 267.893 193.075 266.321 193.075 264.776 193.075 263.564 192.598 262.686 191.644 261.807 190.691 261.368 189.349 261.368 187.62 261.368 185.986 261.852 184.655 262.819 183.626 263.786 182.597 264.988 182.083 266.423 182.083ZM284.469 180.309C284.408 180.698 284.339 181.006 284.264 181.232L282.244 187.097 286.745 187.097 284.705 181.232C284.643 181.04 284.578 180.733 284.51 180.309ZM223.469 180.309C223.408 180.698 223.339 181.006 223.264 181.232L221.244 187.097 225.745 187.097 223.705 181.232C223.643 181.04 223.578 180.733 223.51 180.309ZM296.742 180.196 296.742 190.768 298.69 190.768C300.406 190.768 301.74 190.296 302.694 189.353 303.648 188.409 304.124 187.076 304.124 185.354 304.124 181.915 302.344 180.196 298.782 180.196ZM490.403 179.776C488.618 179.776 487.726 181.741 487.726 185.672 487.726 189.349 488.601 191.188 490.351 191.188 492.074 191.188 492.935 189.319 492.935 185.579 492.935 181.71 492.091 179.776 490.403 179.776ZM496.701 178.125 498.732 178.125C500.899 180.627 501.982 183.658 501.982 187.22 501.982 190.768 500.895 193.752 498.721 196.172L496.712 196.172C498.831 193.615 499.89 190.624 499.89 187.199 499.89 183.747 498.827 180.722 496.701 178.125ZM457.254 178.125 459.274 178.125C457.155 180.722 456.096 183.747 456.096 187.199 456.096 190.624 457.152 193.615 459.264 196.172L457.254 196.172C455.094 193.752 454.014 190.768 454.014 187.22 454.014 183.658 455.094 180.627 457.254 178.125ZM294.311 178.125 298.556 178.125C303.977 178.125 306.688 180.514 306.688 185.292 306.688 187.562 305.936 189.385 304.432 190.763 302.928 192.14 300.911 192.829 298.382 192.829L294.311 192.829ZM283.177 178.125 285.925 178.125 291.39 192.829 288.714 192.829 287.391 189.086 281.608 189.086 280.337 192.829 277.671 192.829ZM222.177 178.125 224.925 178.125 230.39 192.829 227.714 192.829 226.391 189.086 220.608 189.086 219.337 192.829 216.671 192.829ZM490.515 177.879C493.749 177.879 495.365 180.391 495.365 185.415 495.365 187.903 494.909 189.802 493.997 191.111 493.084 192.42 491.807 193.075 490.167 193.075 488.636 193.075 487.441 192.449 486.583 191.198 485.725 189.947 485.296 188.139 485.296 185.774 485.296 183.176 485.744 181.211 486.639 179.878 487.535 178.545 488.827 177.879 490.515 177.879ZM475.798 177.797 476.802 177.797 476.802 192.829 474.424 192.829 474.424 180.709C473.993 181.016 473.53 181.278 473.034 181.493 472.539 181.708 471.973 181.898 471.337 182.062L471.337 180.032C471.734 179.902 472.116 179.765 472.486 179.622 472.855 179.478 473.219 179.318 473.578 179.14 473.937 178.962 474.299 178.764 474.665 178.545 475.03 178.326 475.408 178.077 475.798 177.797ZM395.045 177.284 397.434 177.284 397.434 192.829 395.045 192.829ZM356.212 177.284 358.591 177.284 358.591 192.829 356.212 192.829 356.212 191.045 356.171 191.045C355.406 192.398 354.226 193.075 352.634 193.075 351.342 193.075 350.308 192.605 349.532 191.665 348.756 190.725 348.368 189.445 348.368 187.825 348.368 186.089 348.797 184.697 349.655 183.652 350.513 182.606 351.656 182.083 353.085 182.083 354.5 182.083 355.529 182.65 356.171 183.785L356.212 183.785ZM319.587 177.048C320.175 177.048 320.64 177.113 320.982 177.243L320.982 179.222C320.66 179.037 320.295 178.945 319.885 178.945 318.729 178.945 318.152 179.598 318.152 180.903L318.152 182.329 320.592 182.329 320.592 184.195 318.162 184.195 318.162 192.829 315.783 192.829 315.783 184.195 313.989 184.195 313.989 182.329 315.783 182.329 315.783 180.627C315.783 179.519 316.145 178.646 316.87 178.007 317.595 177.368 318.5 177.048 319.587 177.048Z" fill="url(#fill1)" fill-rule="evenodd"/><text fill="#000000" fill-opacity="0" font-family="Arial,Arial_MSFontService,sans-serif" font-size="20.6104" x="216.671" y="195.082">Azure AD for developers(v1.0)</text><path d="M149.089 229.118C148.443 229.118 147.924 229.348 147.531 229.806 147.137 230.264 146.941 230.837 146.941 231.525L146.941 232.517C146.941 233.1 147.127 233.595 147.499 234.001 147.872 234.408 148.344 234.611 148.917 234.611 149.589 234.611 150.117 234.349 150.499 233.826 150.882 233.302 151.074 232.572 151.074 231.634 151.074 230.848 150.895 230.232 150.538 229.786 150.182 229.341 149.699 229.118 149.089 229.118ZM140.089 229.118C139.443 229.118 138.924 229.348 138.531 229.806 138.137 230.264 137.941 230.837 137.941 231.525L137.941 232.517C137.941 233.1 138.127 233.595 138.499 234.001 138.872 234.408 139.344 234.611 139.917 234.611 140.589 234.611 141.117 234.349 141.499 233.826 141.882 233.302 142.074 232.572 142.074 231.634 142.074 230.848 141.895 230.232 141.538 229.786 141.182 229.341 140.699 229.118 140.089 229.118ZM149.706 227.673C150.722 227.673 151.514 228.03 152.081 228.743 152.649 229.457 152.933 230.415 152.933 231.618 152.933 232.952 152.613 234.02 151.972 234.822 151.331 235.624 150.456 236.025 149.347 236.025 148.326 236.025 147.54 235.577 146.988 234.681L146.956 234.681 146.956 239.54 145.144 239.54 145.144 227.861 146.956 227.861 146.956 229.267 146.988 229.267C147.607 228.204 148.514 227.673 149.706 227.673ZM140.706 227.673C141.722 227.673 142.514 228.03 143.081 228.743 143.649 229.457 143.933 230.415 143.933 231.618 143.933 232.952 143.613 234.02 142.972 234.822 142.331 235.624 141.456 236.025 140.347 236.025 139.326 236.025 138.54 235.577 137.988 234.681L137.956 234.681 137.956 239.54 136.144 239.54 136.144 227.861 137.956 227.861 137.956 229.267 137.988 229.267C138.607 228.204 139.514 227.673 140.706 227.673ZM129.277 226.322C129.23 226.618 129.178 226.853 129.12 227.025L127.581 231.493 131.011 231.493 129.456 227.025C129.41 226.879 129.36 226.645 129.308 226.322ZM128.292 224.658 130.386 224.658 134.55 235.861 132.511 235.861 131.503 233.009 127.097 233.009 126.128 235.861 124.097 235.861Z" fill="url(#fill2)" fill-rule="evenodd"/><text fill="#000000" fill-opacity="0" font-family="Arial,Arial_MSFontService,sans-serif" font-size="14.8828" x="124.097" y="237.68">App </text><path d="M120.008 250.931 118.328 251.165C117.807 251.233 117.415 251.359 117.152 251.544 116.889 251.729 116.758 252.053 116.758 252.517 116.758 252.855 116.879 253.133 117.121 253.349 117.363 253.565 117.688 253.673 118.094 253.673 118.646 253.673 119.103 253.479 119.465 253.091 119.827 252.703 120.008 252.215 120.008 251.626ZM137.25 248.118C136.542 248.118 135.982 248.366 135.57 248.861 135.159 249.355 134.953 250.038 134.953 250.908 134.953 251.746 135.161 252.406 135.578 252.888 135.995 253.37 136.552 253.611 137.25 253.611 137.964 253.611 138.512 253.374 138.895 252.9 139.277 252.426 139.469 251.751 139.469 250.876 139.469 249.996 139.277 249.316 138.895 248.837 138.512 248.358 137.964 248.118 137.25 248.118ZM86.1485 248.118C85.461 248.118 84.9232 248.372 84.5352 248.88 84.1472 249.388 83.9532 250.098 83.9532 251.009 83.9532 251.796 84.1394 252.424 84.5117 252.896 84.8842 253.367 85.3776 253.603 85.9922 253.603 86.6172 253.603 87.125 253.378 87.5157 252.927 87.9063 252.477 88.1016 251.9 88.1016 251.197L88.1016 250.158C88.1016 249.595 87.9154 249.115 87.543 248.716 87.1706 248.318 86.7058 248.118 86.1485 248.118ZM77.9297 248.009C77.4089 248.009 76.9675 248.199 76.6055 248.579 76.2435 248.96 76.0209 249.457 75.9375 250.072L79.6407 250.072C79.6355 249.421 79.4818 248.914 79.1797 248.552 78.8776 248.19 78.461 248.009 77.9297 248.009ZM129.617 246.861 131.43 246.861 131.43 254.861 129.617 254.861ZM92.6172 246.861 94.4297 246.861 94.4297 254.861 92.6172 254.861ZM113.508 246.72C113.836 246.72 114.086 246.77 114.258 246.868L114.258 248.587C114.039 248.415 113.724 248.329 113.313 248.329 112.776 248.329 112.328 248.572 111.969 249.056 111.609 249.54 111.43 250.199 111.43 251.033L111.43 254.861 109.617 254.861 109.617 246.861 111.43 246.861 111.43 248.509 111.461 248.509C111.638 247.947 111.91 247.508 112.277 247.193 112.645 246.878 113.055 246.72 113.508 246.72ZM72.5078 246.72C72.836 246.72 73.086 246.77 73.2578 246.868L73.2578 248.587C73.0391 248.415 72.724 248.329 72.3125 248.329 71.7761 248.329 71.3282 248.572 70.9688 249.056 70.6094 249.54 70.4297 250.199 70.4297 251.033L70.4297 254.861 68.6172 254.861 68.6172 246.861 70.4297 246.861 70.4297 248.509 70.461 248.509C70.6381 247.947 70.9102 247.508 71.2774 247.193 71.6446 246.878 72.0547 246.72 72.5078 246.72ZM155.391 246.673C156.13 246.673 156.792 246.785 157.375 247.009L157.375 248.595C156.813 248.21 156.167 248.017 155.438 248.017 155.208 248.017 155.001 248.04 154.816 248.087 154.632 248.134 154.474 248.199 154.344 248.283 154.214 248.366 154.112 248.466 154.039 248.583 153.966 248.701 153.93 248.829 153.93 248.97 153.93 249.142 153.966 249.288 154.039 249.408 154.112 249.527 154.22 249.633 154.363 249.724 154.507 249.815 154.678 249.898 154.879 249.974 155.079 250.049 155.31 250.132 155.57 250.22 155.914 250.361 156.223 250.504 156.496 250.65 156.77 250.796 157.003 250.961 157.195 251.146 157.388 251.331 157.536 251.544 157.641 251.786 157.745 252.029 157.797 252.316 157.797 252.65 157.797 253.056 157.703 253.41 157.516 253.712 157.328 254.014 157.078 254.264 156.766 254.462 156.453 254.66 156.092 254.807 155.684 254.904 155.275 255 154.844 255.048 154.391 255.048 153.516 255.048 152.758 254.902 152.117 254.611L152.117 252.931C152.794 253.447 153.542 253.704 154.359 253.704 155.453 253.704 156 253.382 156 252.736 156 252.553 155.953 252.398 155.859 252.271 155.766 252.143 155.639 252.03 155.48 251.931 155.322 251.832 155.134 251.743 154.918 251.665 154.702 251.587 154.461 251.499 154.195 251.4 153.867 251.27 153.572 251.132 153.309 250.986 153.046 250.84 152.827 250.674 152.652 250.49 152.478 250.305 152.346 250.095 152.258 249.861 152.169 249.626 152.125 249.353 152.125 249.04 152.125 248.655 152.216 248.315 152.398 248.021 152.581 247.727 152.826 247.479 153.133 247.279 153.44 247.078 153.789 246.927 154.18 246.826 154.57 246.724 154.974 246.673 155.391 246.673ZM148.063 246.673C148.932 246.673 149.596 246.956 150.055 247.521 150.513 248.086 150.742 248.902 150.742 249.97L150.742 254.861 148.93 254.861 148.93 250.353C148.93 248.858 148.401 248.111 147.344 248.111 146.792 248.111 146.336 248.318 145.977 248.732 145.617 249.146 145.438 249.668 145.438 250.298L145.438 254.861 143.617 254.861 143.617 246.861 145.438 246.861 145.438 248.189 145.469 248.189C146.068 247.178 146.932 246.673 148.063 246.673ZM137.359 246.673C138.609 246.673 139.583 247.04 140.281 247.775 140.979 248.509 141.328 249.527 141.328 250.829 141.328 252.105 140.952 253.128 140.199 253.896 139.447 254.664 138.435 255.048 137.164 255.048 135.93 255.048 134.944 254.674 134.207 253.927 133.47 253.18 133.102 252.189 133.102 250.954 133.102 249.611 133.486 248.561 134.254 247.806 135.022 247.051 136.057 246.673 137.359 246.673ZM118.727 246.673C120.747 246.673 121.758 247.668 121.758 249.658L121.758 254.861 120 254.861 120 253.611 119.969 253.611C119.417 254.569 118.607 255.048 117.539 255.048 116.753 255.048 116.137 254.835 115.691 254.408 115.246 253.98 115.023 253.415 115.023 252.712 115.023 251.202 115.893 250.322 117.633 250.072L120.008 249.736C120.008 248.595 119.466 248.025 118.383 248.025 117.43 248.025 116.57 248.353 115.805 249.009L115.805 247.423C116.648 246.923 117.622 246.673 118.727 246.673ZM99.3907 246.673C100.13 246.673 100.792 246.785 101.375 247.009L101.375 248.595C100.813 248.21 100.167 248.017 99.4375 248.017 99.2084 248.017 99.0013 248.04 98.8164 248.087 98.6315 248.134 98.474 248.199 98.3438 248.283 98.2136 248.366 98.112 248.466 98.0391 248.583 97.9662 248.701 97.9297 248.829 97.9297 248.97 97.9297 249.142 97.9662 249.288 98.0391 249.408 98.112 249.527 98.2201 249.633 98.3633 249.724 98.5065 249.815 98.6784 249.898 98.8789 249.974 99.0795 250.049 99.3099 250.132 99.5703 250.22 99.9141 250.361 100.223 250.504 100.496 250.65 100.77 250.796 101.003 250.961 101.195 251.146 101.388 251.331 101.536 251.544 101.641 251.786 101.745 252.029 101.797 252.316 101.797 252.65 101.797 253.056 101.703 253.41 101.516 253.712 101.328 254.014 101.078 254.264 100.766 254.462 100.453 254.66 100.092 254.807 99.6836 254.904 99.2748 255 98.8438 255.048 98.3907 255.048 97.5157 255.048 96.7578 254.902 96.1172 254.611L96.1172 252.931C96.7943 253.447 97.5417 253.704 98.3594 253.704 99.4532 253.704 100 253.382 100 252.736 100 252.553 99.9532 252.398 99.8594 252.271 99.7657 252.143 99.6394 252.03 99.4805 251.931 99.3217 251.832 99.1341 251.743 98.918 251.665 98.7019 251.587 98.461 251.499 98.1953 251.4 97.8672 251.27 97.5716 251.132 97.3086 250.986 97.0456 250.84 96.8269 250.674 96.6524 250.49 96.4779 250.305 96.3464 250.095 96.2578 249.861 96.1693 249.626 96.125 249.353 96.125 249.04 96.125 248.655 96.2162 248.315 96.3985 248.021 96.5808 247.727 96.8256 247.479 97.1328 247.279 97.4401 247.078 97.7891 246.927 98.1797 246.826 98.5703 246.724 98.974 246.673 99.3907 246.673ZM85.7032 246.673C86.7605 246.673 87.5443 247.105 88.0547 247.97L88.086 247.97 88.086 246.861 89.8985 246.861 89.8985 254.22C89.8985 257.158 88.4219 258.626 85.4688 258.626 84.4271 258.626 83.5183 258.452 82.7422 258.103L82.7422 256.447C83.6172 256.947 84.448 257.197 85.2344 257.197 87.1355 257.197 88.086 256.262 88.086 254.392L88.086 253.517 88.0547 253.517C87.4558 254.538 86.5547 255.048 85.3516 255.048 84.3776 255.048 83.5925 254.693 82.9961 253.982 82.3998 253.271 82.1016 252.316 82.1016 251.118 82.1016 249.759 82.4219 248.678 83.0625 247.876 83.7032 247.074 84.5834 246.673 85.7032 246.673ZM77.9532 246.673C79.0469 246.673 79.8933 247.025 80.4922 247.728 81.0912 248.431 81.3907 249.408 81.3907 250.658L81.3907 251.353 75.9375 251.353C75.9584 252.092 76.1862 252.663 76.6211 253.064 77.056 253.465 77.6537 253.665 78.4141 253.665 79.2683 253.665 80.0521 253.41 80.7657 252.9L80.7657 254.361C80.0365 254.819 79.073 255.048 77.875 255.048 76.698 255.048 75.7748 254.685 75.1055 253.958 74.4362 253.232 74.1016 252.21 74.1016 250.892 74.1016 249.647 74.4701 248.633 75.2071 247.849 75.944 247.065 76.8594 246.673 77.9532 246.673ZM125.922 244.493 125.922 246.861 127.836 246.861 127.836 248.283 125.922 248.283 125.922 252.283C125.922 252.757 126.008 253.095 126.18 253.298 126.352 253.501 126.638 253.603 127.039 253.603 127.346 253.603 127.612 253.514 127.836 253.337L127.836 254.775C127.482 254.952 127.016 255.04 126.438 255.04 124.885 255.04 124.109 254.296 124.109 252.806L124.109 248.283 122.773 248.283 122.773 246.861 124.109 246.861 124.109 245.009ZM105.922 244.493 105.922 246.861 107.836 246.861 107.836 248.283 105.922 248.283 105.922 252.283C105.922 252.757 106.008 253.095 106.18 253.298 106.352 253.501 106.638 253.603 107.039 253.603 107.346 253.603 107.612 253.514 107.836 253.337L107.836 254.775C107.482 254.952 107.016 255.04 106.438 255.04 104.885 255.04 104.109 254.296 104.109 252.806L104.109 248.283 102.773 248.283 102.773 246.861 104.109 246.861 104.109 245.009ZM130.531 243.118C130.839 243.118 131.099 243.217 131.313 243.415 131.526 243.613 131.633 243.861 131.633 244.158 131.633 244.439 131.526 244.68 131.313 244.88 131.099 245.081 130.839 245.181 130.531 245.181 130.234 245.181 129.98 245.085 129.77 244.892 129.559 244.699 129.453 244.454 129.453 244.158 129.453 243.861 129.559 243.613 129.77 243.415 129.98 243.217 130.234 243.118 130.531 243.118ZM93.5313 243.118C93.8386 243.118 94.099 243.217 94.3125 243.415 94.5261 243.613 94.6328 243.861 94.6328 244.158 94.6328 244.439 94.5261 244.68 94.3125 244.88 94.099 245.081 93.8386 245.181 93.5313 245.181 93.2344 245.181 92.9805 245.085 92.7696 244.892 92.5586 244.699 92.4532 244.454 92.4532 244.158 92.4532 243.861 92.5586 243.613 92.7696 243.415 92.9805 243.217 93.2344 243.118 93.5313 243.118Z" fill="url(#fill3)" fill-rule="evenodd"/><text fill="#000000" fill-opacity="0" font-family="Arial,Arial_MSFontService,sans-serif" font-size="15.5078" x="68.6172" y="256.688">registrations</text><path d="M125.385 520.294 123.705 520.528C123.184 520.596 122.792 520.722 122.529 520.907 122.266 521.092 122.135 521.416 122.135 521.88 122.135 522.218 122.256 522.496 122.498 522.712 122.74 522.928 123.064 523.036 123.471 523.036 124.023 523.036 124.48 522.842 124.842 522.454 125.204 522.066 125.385 521.578 125.385 520.989ZM139.525 517.481C138.838 517.481 138.3 517.735 137.912 518.243 137.524 518.751 137.33 519.461 137.33 520.372 137.33 521.159 137.516 521.787 137.889 522.259 138.261 522.73 138.755 522.966 139.369 522.966 139.994 522.966 140.502 522.741 140.893 522.29 141.283 521.84 141.478 521.263 141.478 520.56L141.478 519.521C141.478 518.958 141.292 518.478 140.92 518.079 140.548 517.681 140.083 517.481 139.525 517.481ZM89.6269 517.481C88.9186 517.481 88.3587 517.729 87.9472 518.224 87.5358 518.718 87.3301 519.401 87.3301 520.271 87.3301 521.109 87.5384 521.769 87.9551 522.251 88.3717 522.733 88.929 522.974 89.6269 522.974 90.3405 522.974 90.8886 522.737 91.2715 522.263 91.6543 521.789 91.8457 521.114 91.8457 520.239 91.8457 519.359 91.6543 518.679 91.2715 518.2 90.8886 517.721 90.3405 517.481 89.6269 517.481ZM148.307 517.372C147.786 517.372 147.344 517.562 146.982 517.942 146.62 518.323 146.398 518.82 146.314 519.435L150.018 519.435C150.012 518.784 149.859 518.277 149.557 517.915 149.255 517.553 148.838 517.372 148.307 517.372ZM95.8379 516.224 97.6504 516.224 97.6504 520.817C97.6504 522.255 98.2051 522.974 99.3144 522.974 99.8509 522.974 100.292 522.776 100.639 522.38 100.985 521.984 101.158 521.466 101.158 520.825L101.158 516.224 102.971 516.224 102.971 524.224 101.158 524.224 101.158 522.958 101.127 522.958C100.601 523.927 99.7832 524.411 98.6738 524.411 96.7832 524.411 95.8379 523.276 95.8379 521.005ZM133.885 516.083C134.213 516.083 134.463 516.133 134.635 516.231L134.635 517.95C134.416 517.778 134.101 517.692 133.689 517.692 133.153 517.692 132.705 517.935 132.346 518.419 131.986 518.903 131.807 519.562 131.807 520.396L131.807 524.224 129.994 524.224 129.994 516.224 131.807 516.224 131.807 517.872 131.838 517.872C132.015 517.31 132.287 516.871 132.654 516.556 133.021 516.241 133.432 516.083 133.885 516.083ZM108.885 516.083C109.213 516.083 109.463 516.133 109.635 516.231L109.635 517.95C109.416 517.778 109.101 517.692 108.689 517.692 108.153 517.692 107.705 517.935 107.346 518.419 106.986 518.903 106.807 519.562 106.807 520.396L106.807 524.224 104.994 524.224 104.994 516.224 106.807 516.224 106.807 517.872 106.838 517.872C107.015 517.31 107.287 516.871 107.654 516.556 108.021 516.241 108.432 516.083 108.885 516.083ZM148.33 516.036C149.424 516.036 150.27 516.388 150.869 517.091 151.468 517.794 151.768 518.771 151.768 520.021L151.768 520.716 146.314 520.716C146.335 521.455 146.563 522.026 146.998 522.427 147.433 522.828 148.031 523.028 148.791 523.028 149.645 523.028 150.429 522.773 151.143 522.263L151.143 523.724C150.413 524.182 149.45 524.411 148.252 524.411 147.075 524.411 146.152 524.048 145.482 523.321 144.813 522.595 144.478 521.573 144.478 520.255 144.478 519.01 144.847 517.996 145.584 517.212 146.321 516.428 147.236 516.036 148.33 516.036ZM139.08 516.036C140.137 516.036 140.921 516.468 141.432 517.333L141.463 517.333 141.463 516.224 143.275 516.224 143.275 523.583C143.275 526.521 141.799 527.989 138.846 527.989 137.804 527.989 136.895 527.815 136.119 527.466L136.119 525.81C136.994 526.31 137.825 526.56 138.611 526.56 140.512 526.56 141.463 525.625 141.463 523.755L141.463 522.88 141.432 522.88C140.833 523.901 139.932 524.411 138.728 524.411 137.755 524.411 136.969 524.056 136.373 523.345 135.777 522.634 135.478 521.679 135.478 520.481 135.478 519.122 135.799 518.041 136.439 517.239 137.08 516.437 137.96 516.036 139.08 516.036ZM124.103 516.036C126.124 516.036 127.135 517.031 127.135 519.021L127.135 524.224 125.377 524.224 125.377 522.974 125.346 522.974C124.794 523.932 123.984 524.411 122.916 524.411 122.13 524.411 121.514 524.198 121.068 523.771 120.623 523.343 120.4 522.778 120.4 522.075 120.4 520.565 121.27 519.685 123.01 519.435L125.385 519.099C125.385 517.958 124.843 517.388 123.76 517.388 122.807 517.388 121.947 517.716 121.182 518.372L121.182 516.786C122.025 516.286 122.999 516.036 124.103 516.036ZM89.7363 516.036C90.9863 516.036 91.9603 516.403 92.6582 517.138 93.3561 517.872 93.7051 518.89 93.7051 520.192 93.7051 521.468 93.3288 522.491 92.5762 523.259 91.8235 524.027 90.8118 524.411 89.541 524.411 88.3066 524.411 87.3209 524.037 86.584 523.29 85.847 522.543 85.4785 521.552 85.4785 520.317 85.4785 518.974 85.8626 517.924 86.6308 517.169 87.3991 516.414 88.4342 516.036 89.7363 516.036ZM156.299 513.856 156.299 516.224 158.213 516.224 158.213 517.646 156.299 517.646 156.299 521.646C156.299 522.119 156.385 522.458 156.557 522.661 156.728 522.864 157.015 522.966 157.416 522.966 157.723 522.966 157.989 522.877 158.213 522.7L158.213 524.138C157.859 524.315 157.393 524.403 156.814 524.403 155.262 524.403 154.486 523.659 154.486 522.169L154.486 517.646 153.15 517.646 153.15 516.224 154.486 516.224 154.486 514.372ZM117.299 513.856 117.299 516.224 119.213 516.224 119.213 517.646 117.299 517.646 117.299 521.646C117.299 522.119 117.385 522.458 117.557 522.661 117.728 522.864 118.015 522.966 118.416 522.966 118.723 522.966 118.989 522.877 119.213 522.7L119.213 524.138C118.859 524.315 118.393 524.403 117.814 524.403 116.262 524.403 115.486 523.659 115.486 522.169L115.486 517.646 114.15 517.646 114.15 516.224 115.486 516.224 115.486 514.372ZM75.8926 513.021 78.0098 513.021 80.2129 517.825C80.2389 517.883 80.317 518.099 80.4472 518.474L80.4707 518.474C80.5176 518.307 80.6035 518.091 80.7285 517.825L83.0332 513.021 85.0019 513.021 81.3301 520.153 81.3301 524.224 79.4707 524.224 79.4707 520.192Z" fill="url(#fill4)" fill-rule="evenodd"/><text fill="#000000" fill-opacity="0" font-family="Arial,Arial_MSFontService,sans-serif" font-size="14.9688" x="75.8926" y="526.118">Your target</text><path d="M98.5514 539.294 96.8717 539.528C96.3509 539.596 95.959 539.722 95.6959 539.907 95.4329 540.092 95.3014 540.416 95.3014 540.88 95.3014 541.218 95.4225 541.496 95.6647 541.712 95.9069 541.928 96.2311 542.036 96.6374 542.036 97.1894 542.036 97.6465 541.842 98.0084 541.454 98.3704 541.066 98.5514 540.578 98.5514 539.989ZM115.676 536.481C114.999 536.481 114.467 536.734 114.079 537.239 113.691 537.744 113.497 538.445 113.497 539.341 113.497 540.153 113.683 540.795 114.055 541.267 114.428 541.738 114.929 541.974 115.559 541.974 116.179 541.974 116.682 541.746 117.067 541.29 117.452 540.834 117.645 540.26 117.645 539.567L117.645 538.521C117.645 537.953 117.46 537.471 117.09 537.075 116.721 536.679 116.249 536.481 115.676 536.481ZM154.473 536.372C153.952 536.372 153.511 536.562 153.149 536.942 152.787 537.323 152.564 537.82 152.481 538.435L156.184 538.435C156.179 537.784 156.025 537.277 155.723 536.915 155.421 536.553 155.005 536.372 154.473 536.372ZM129.473 536.372C128.952 536.372 128.511 536.562 128.149 536.942 127.787 537.323 127.564 537.82 127.481 538.435L131.184 538.435C131.179 537.784 131.025 537.277 130.723 536.915 130.421 536.553 130.005 536.372 129.473 536.372ZM121.161 535.224 122.973 535.224 122.973 543.224 121.161 543.224ZM102.005 535.224 103.817 535.224 103.817 539.817C103.817 541.255 104.372 541.974 105.481 541.974 106.018 541.974 106.459 541.776 106.805 541.38 107.152 540.984 107.325 540.466 107.325 539.825L107.325 535.224 109.137 535.224 109.137 543.224 107.325 543.224 107.325 541.958 107.294 541.958C106.768 542.927 105.95 543.411 104.84 543.411 102.95 543.411 102.005 542.276 102.005 540.005ZM154.497 535.036C155.59 535.036 156.437 535.388 157.036 536.091 157.635 536.794 157.934 537.771 157.934 539.021L157.934 539.716 152.481 539.716C152.502 540.455 152.73 541.026 153.165 541.427 153.6 541.828 154.197 542.028 154.958 542.028 155.812 542.028 156.596 541.773 157.309 541.263L157.309 542.724C156.58 543.182 155.617 543.411 154.419 543.411 153.242 543.411 152.318 543.048 151.649 542.321 150.98 541.595 150.645 540.573 150.645 539.255 150.645 538.01 151.014 536.996 151.751 536.212 152.488 535.428 153.403 535.036 154.497 535.036ZM146.965 535.036C147.695 535.036 148.338 535.164 148.895 535.419L148.895 537.106C148.338 536.69 147.744 536.481 147.114 536.481 146.348 536.481 145.721 536.741 145.231 537.259 144.742 537.777 144.497 538.455 144.497 539.294 144.497 540.122 144.727 540.776 145.188 541.255 145.649 541.734 146.268 541.974 147.044 541.974 147.695 541.974 148.309 541.742 148.887 541.278L148.887 542.856C148.247 543.226 147.489 543.411 146.614 543.411 145.426 543.411 144.468 543.04 143.739 542.298 143.01 541.556 142.645 540.593 142.645 539.411 142.645 538.093 143.037 537.035 143.821 536.235 144.605 535.436 145.653 535.036 146.965 535.036ZM138.606 535.036C139.476 535.036 140.14 535.319 140.598 535.884 141.057 536.449 141.286 537.265 141.286 538.333L141.286 543.224 139.473 543.224 139.473 538.716C139.473 537.221 138.945 536.474 137.887 536.474 137.335 536.474 136.88 536.681 136.52 537.095 136.161 537.509 135.981 538.031 135.981 538.661L135.981 543.224 134.161 543.224 134.161 535.224 135.981 535.224 135.981 536.552 136.012 536.552C136.611 535.541 137.476 535.036 138.606 535.036ZM129.497 535.036C130.59 535.036 131.437 535.388 132.036 536.091 132.635 536.794 132.934 537.771 132.934 539.021L132.934 539.716 127.481 539.716C127.502 540.455 127.73 541.026 128.165 541.427 128.6 541.828 129.197 542.028 129.958 542.028 130.812 542.028 131.596 541.773 132.309 541.263L132.309 542.724C131.58 543.182 130.617 543.411 129.419 543.411 128.242 543.411 127.318 543.048 126.649 542.321 125.98 541.595 125.645 540.573 125.645 539.255 125.645 538.01 126.014 536.996 126.751 536.212 127.488 535.428 128.403 535.036 129.497 535.036ZM97.2702 535.036C99.291 535.036 100.301 536.031 100.301 538.021L100.301 543.224 98.5436 543.224 98.5436 541.974 98.5124 541.974C97.9603 542.932 97.1504 543.411 96.0827 543.411 95.2962 543.411 94.6803 543.198 94.235 542.771 93.7897 542.343 93.567 541.778 93.567 541.075 93.567 539.565 94.4368 538.685 96.1764 538.435L98.5514 538.099C98.5514 536.958 98.0098 536.388 96.9264 536.388 95.9733 536.388 95.1139 536.716 94.3483 537.372L94.3483 535.786C95.192 535.286 96.166 535.036 97.2702 535.036ZM122.075 531.481C122.382 531.481 122.643 531.58 122.856 531.778 123.07 531.976 123.176 532.224 123.176 532.521 123.176 532.802 123.07 533.043 122.856 533.243 122.643 533.444 122.382 533.544 122.075 533.544 121.778 533.544 121.524 533.448 121.313 533.255 121.102 533.062 120.997 532.817 120.997 532.521 120.997 532.224 121.102 531.976 121.313 531.778 121.524 531.58 121.778 531.481 122.075 531.481ZM117.622 531.38 119.434 531.38 119.434 543.224 117.622 543.224 117.622 541.864 117.59 541.864C117.007 542.896 116.109 543.411 114.895 543.411 113.911 543.411 113.123 543.053 112.532 542.337 111.941 541.621 111.645 540.646 111.645 539.411 111.645 538.088 111.972 537.028 112.626 536.231 113.279 535.435 114.15 535.036 115.239 535.036 116.317 535.036 117.101 535.468 117.59 536.333L117.622 536.333Z" fill="url(#fill5)" fill-rule="evenodd"/><text fill="#000000" fill-opacity="0" font-family="Arial,Arial_MSFontService,sans-serif" font-size="12.0312" x="93.567" y="541.907">audience</text><path d="M104.458 303.102C103.938 303.102 103.496 303.292 103.134 303.672 102.772 304.052 102.55 304.55 102.466 305.164L106.169 305.164C106.164 304.513 106.01 304.007 105.708 303.645 105.406 303.283 104.99 303.102 104.458 303.102ZM97.1459 301.953 98.9584 301.953 98.9584 309.953 97.1459 309.953ZM114.591 301.766C115.461 301.766 116.125 302.048 116.583 302.613 117.042 303.178 117.271 303.995 117.271 305.063L117.271 309.953 115.458 309.953 115.458 305.445C115.458 303.951 114.93 303.203 113.872 303.203 113.32 303.203 112.865 303.41 112.505 303.824 112.146 304.238 111.966 304.76 111.966 305.391L111.966 309.953 110.146 309.953 110.146 301.953 111.966 301.953 111.966 303.281 111.997 303.281C112.596 302.271 113.461 301.766 114.591 301.766ZM104.482 301.766C105.576 301.766 106.422 302.117 107.021 302.82 107.62 303.523 107.919 304.5 107.919 305.75L107.919 306.445 102.466 306.445C102.487 307.185 102.715 307.755 103.15 308.156 103.585 308.557 104.182 308.758 104.943 308.758 105.797 308.758 106.581 308.503 107.294 307.992L107.294 309.453C106.565 309.912 105.602 310.141 104.404 310.141 103.227 310.141 102.303 309.777 101.634 309.051 100.965 308.324 100.63 307.302 100.63 305.984 100.63 304.74 100.999 303.725 101.736 302.941 102.473 302.158 103.388 301.766 104.482 301.766ZM140.201 300.328 140.201 308.383 141.685 308.383C142.992 308.383 144.009 308.023 144.736 307.305 145.462 306.586 145.826 305.57 145.826 304.258 145.826 301.638 144.469 300.328 141.755 300.328ZM121.451 299.586 121.451 301.953 123.365 301.953 123.365 303.375 121.451 303.375 121.451 307.375C121.451 307.849 121.537 308.188 121.708 308.391 121.88 308.594 122.167 308.695 122.568 308.695 122.875 308.695 123.141 308.607 123.365 308.43L123.365 309.867C123.01 310.044 122.544 310.133 121.966 310.133 120.414 310.133 119.638 309.388 119.638 307.898L119.638 303.375 118.302 303.375 118.302 301.953 119.638 301.953 119.638 300.102ZM150.349 298.75 152.208 298.75 152.208 304.016 152.24 304.016C152.302 303.901 152.391 303.773 152.505 303.633L156.263 298.75 158.49 298.75 154.091 304.125 158.826 309.953 156.404 309.953 152.505 304.828C152.359 304.635 152.271 304.505 152.24 304.438L152.208 304.438 152.208 309.953 150.349 309.953ZM138.349 298.75 141.583 298.75C145.714 298.75 147.779 300.57 147.779 304.211 147.779 305.94 147.206 307.329 146.06 308.379 144.914 309.428 143.378 309.953 141.451 309.953L138.349 309.953ZM132.958 298.563C134.13 298.563 134.984 298.695 135.521 298.961L135.521 300.797C134.885 300.339 134.068 300.109 133.068 300.109 132.792 300.109 132.517 300.135 132.244 300.188 131.97 300.24 131.725 300.326 131.509 300.445 131.293 300.565 131.117 300.719 130.982 300.906 130.846 301.094 130.779 301.32 130.779 301.586 130.779 301.836 130.831 302.052 130.935 302.234 131.039 302.417 131.191 302.583 131.392 302.734 131.592 302.885 131.837 303.033 132.126 303.176 132.415 303.319 132.75 303.474 133.13 303.641 133.521 303.844 133.889 304.057 134.236 304.281 134.582 304.505 134.887 304.753 135.15 305.023 135.413 305.294 135.621 305.595 135.775 305.926 135.928 306.257 136.005 306.633 136.005 307.055 136.005 307.622 135.891 308.102 135.661 308.492 135.432 308.883 135.124 309.201 134.736 309.445 134.348 309.69 133.901 309.867 133.396 309.977 132.891 310.086 132.357 310.141 131.794 310.141 131.607 310.141 131.376 310.126 131.103 310.098 130.829 310.069 130.55 310.027 130.263 309.973 129.977 309.918 129.706 309.852 129.451 309.773 129.195 309.695 128.99 309.607 128.833 309.508L128.833 307.594C129.005 307.75 129.21 307.891 129.447 308.016 129.684 308.141 129.935 308.246 130.201 308.332 130.466 308.418 130.732 308.484 130.997 308.531 131.263 308.578 131.508 308.602 131.732 308.602 132.513 308.602 133.095 308.471 133.478 308.211 133.861 307.951 134.052 307.573 134.052 307.078 134.052 306.813 133.988 306.582 133.861 306.387 133.733 306.191 133.555 306.013 133.326 305.852 133.096 305.69 132.827 305.535 132.517 305.387 132.207 305.238 131.875 305.083 131.521 304.922 131.141 304.719 130.786 304.513 130.458 304.305 130.13 304.096 129.845 303.866 129.603 303.613 129.361 303.361 129.171 303.076 129.033 302.758 128.895 302.44 128.826 302.068 128.826 301.641 128.826 301.115 128.944 300.658 129.181 300.27 129.418 299.882 129.731 299.561 130.119 299.309 130.507 299.056 130.948 298.869 131.443 298.746 131.938 298.624 132.443 298.563 132.958 298.563ZM88.4662 298.563C89.5495 298.563 90.448 298.716 91.1615 299.023L91.1615 300.867C90.4063 300.419 89.573 300.195 88.6615 300.195 87.448 300.195 86.4649 300.583 85.7123 301.359 84.9597 302.135 84.5834 303.172 84.5834 304.469 84.5834 305.703 84.935 306.686 85.6381 307.418 86.3412 308.15 87.2657 308.516 88.4115 308.516 89.4688 308.516 90.3855 308.266 91.1615 307.766L91.1615 309.484C90.3178 309.922 89.2683 310.141 88.0131 310.141 86.3881 310.141 85.086 309.628 84.1068 308.602 83.1277 307.576 82.6381 306.229 82.6381 304.563 82.6381 302.771 83.1889 301.323 84.2904 300.219 85.392 299.115 86.7839 298.563 88.4662 298.563ZM98.06 298.211C98.3672 298.211 98.6277 298.31 98.8412 298.508 99.0547 298.706 99.1615 298.953 99.1615 299.25 99.1615 299.531 99.0547 299.772 98.8412 299.973 98.6277 300.173 98.3672 300.273 98.06 300.273 97.7631 300.273 97.5092 300.177 97.2982 299.984 97.0873 299.792 96.9818 299.547 96.9818 299.25 96.9818 298.953 97.0873 298.706 97.2982 298.508 97.5092 298.31 97.7631 298.211 98.06 298.211ZM93.1459 298.109 94.9662 298.109 94.9662 309.953 93.1459 309.953Z" fill="url(#fill6)" fill-rule="evenodd"/><text fill="#000000" fill-opacity="0" font-family="Arial,Arial_MSFontService,sans-serif" font-size="12.0312" x="82.6381" y="308.637">Client SDK</text><path d="M134.215 397.479C133.506 397.479 132.946 397.726 132.535 398.221 132.123 398.716 131.918 399.398 131.918 400.268 131.918 401.106 132.126 401.766 132.543 402.248 132.959 402.73 133.517 402.971 134.215 402.971 134.928 402.971 135.476 402.734 135.859 402.26 136.242 401.786 136.433 401.111 136.433 400.236 136.433 399.356 136.242 398.677 135.859 398.197 135.476 397.718 134.928 397.479 134.215 397.479ZM124.527 397.479C123.881 397.479 123.362 397.708 122.968 398.166 122.575 398.624 122.379 399.197 122.379 399.885L122.379 400.877C122.379 401.46 122.565 401.955 122.937 402.361 123.31 402.768 123.782 402.971 124.355 402.971 125.027 402.971 125.554 402.709 125.937 402.186 126.32 401.662 126.511 400.932 126.511 399.994 126.511 399.208 126.333 398.592 125.976 398.147 125.619 397.701 125.136 397.479 124.527 397.479ZM115.097 397.479C114.42 397.479 113.888 397.731 113.5 398.236 113.112 398.742 112.918 399.442 112.918 400.338 112.918 401.15 113.104 401.792 113.476 402.264 113.849 402.735 114.35 402.971 114.98 402.971 115.6 402.971 116.103 402.743 116.488 402.287 116.873 401.831 117.066 401.257 117.066 400.565L117.066 399.518C117.066 398.95 116.881 398.468 116.511 398.072 116.142 397.677 115.67 397.479 115.097 397.479ZM140.582 396.221 142.394 396.221 142.394 404.221 140.582 404.221ZM149.027 396.033C149.897 396.033 150.561 396.316 151.019 396.881 151.478 397.446 151.707 398.262 151.707 399.33L151.707 404.221 149.894 404.221 149.894 399.713C149.894 398.218 149.366 397.471 148.308 397.471 147.756 397.471 147.3 397.678 146.941 398.092 146.582 398.506 146.402 399.028 146.402 399.658L146.402 404.221 144.582 404.221 144.582 396.221 146.402 396.221 146.402 397.549 146.433 397.549C147.032 396.539 147.897 396.033 149.027 396.033ZM134.324 396.033C135.574 396.033 136.548 396.4 137.246 397.135 137.944 397.869 138.293 398.887 138.293 400.19 138.293 401.466 137.916 402.488 137.164 403.256 136.411 404.024 135.399 404.408 134.129 404.408 132.894 404.408 131.909 404.035 131.172 403.287 130.435 402.54 130.066 401.549 130.066 400.315 130.066 398.971 130.45 397.921 131.218 397.166 131.987 396.411 133.022 396.033 134.324 396.033ZM125.144 396.033C126.16 396.033 126.952 396.39 127.519 397.104 128.087 397.817 128.371 398.775 128.371 399.979 128.371 401.312 128.05 402.38 127.41 403.182 126.769 403.984 125.894 404.385 124.785 404.385 123.764 404.385 122.978 403.937 122.425 403.041L122.394 403.041 122.394 407.9 120.582 407.9 120.582 396.221 122.394 396.221 122.394 397.627 122.425 397.627C123.045 396.565 123.952 396.033 125.144 396.033ZM106.027 396.033C106.897 396.033 107.561 396.316 108.019 396.881 108.478 397.446 108.707 398.262 108.707 399.33L108.707 404.221 106.894 404.221 106.894 399.713C106.894 398.218 106.366 397.471 105.308 397.471 104.756 397.471 104.3 397.678 103.941 398.092 103.582 398.506 103.402 399.028 103.402 399.658L103.402 404.221 101.582 404.221 101.582 396.221 103.402 396.221 103.402 397.549 103.433 397.549C104.032 396.539 104.897 396.033 106.027 396.033ZM155.886 393.854 155.886 396.221 157.8 396.221 157.8 397.643 155.886 397.643 155.886 401.643C155.886 402.117 155.972 402.455 156.144 402.658 156.316 402.861 156.603 402.963 157.004 402.963 157.311 402.963 157.577 402.874 157.8 402.697L157.8 404.135C157.446 404.312 156.98 404.4 156.402 404.4 154.85 404.4 154.074 403.656 154.074 402.166L154.074 397.643 152.738 397.643 152.738 396.221 154.074 396.221 154.074 394.369ZM93.7849 393.018 99.8239 393.018 99.8239 394.596 95.6442 394.596 95.6442 397.768 99.4958 397.768 99.4958 399.338 95.6442 399.338 95.6442 402.65 100.074 402.65 100.074 404.221 93.7849 404.221ZM141.496 392.479C141.803 392.479 142.064 392.578 142.277 392.775 142.491 392.973 142.597 393.221 142.597 393.518 142.597 393.799 142.491 394.04 142.277 394.24 142.064 394.441 141.803 394.541 141.496 394.541 141.199 394.541 140.945 394.445 140.734 394.252 140.523 394.059 140.418 393.815 140.418 393.518 140.418 393.221 140.523 392.973 140.734 392.775 140.945 392.578 141.199 392.479 141.496 392.479ZM117.043 392.377 118.855 392.377 118.855 404.221 117.043 404.221 117.043 402.861 117.011 402.861C116.428 403.893 115.53 404.408 114.316 404.408 113.332 404.408 112.544 404.05 111.953 403.334 111.362 402.618 111.066 401.643 111.066 400.408 111.066 399.085 111.393 398.025 112.047 397.229 112.7 396.432 113.571 396.033 114.66 396.033 115.738 396.033 116.522 396.466 117.011 397.33L117.043 397.33Z" fill="url(#fill7)" fill-rule="evenodd"/><text fill="#000000" fill-opacity="0" font-family="Arial,Arial_MSFontService,sans-serif" font-size="15.5234" x="93.7849" y="405.96">Endpoint</text><path d="M394 332 394 351.176 390 351.176 390 332ZM398 349.176 392 361.176 386 349.176Z" fill="#D73B02"/><path d="M0-2 181.338-2C182.443-2 183.338-1.10457 183.338 0L183.338 19.9605 179.338 19.9605 179.338 0 181.338 2 0 2ZM187.338 17.9605 181.338 29.9605 175.338 17.9605Z" fill="#D73B02" transform="matrix(-4.37114e-08 1 1 4.37114e-08 254 303)"/><path d="M253 303 297.324 303" stroke="#D73B02" stroke-width="4" stroke-linejoin="round" stroke-miterlimit="10" fill="none" fill-rule="evenodd"/><path d="M225.5 616.5C213.902 616.5 204.5 609.207 204.5 600.21L204.5 462.79C204.5 453.793 213.902 446.5 225.5 446.5" stroke="#00204F" stroke-width="1.33333" stroke-linejoin="round" stroke-miterlimit="10" fill="none" fill-rule="evenodd"/><path d="M225.5 436.5C213.902 436.5 204.5 431.048 204.5 424.322L204.5 373.679C204.5 366.953 213.902 361.5 225.5 361.5" stroke="#00204F" stroke-width="1.33333" stroke-linejoin="round" stroke-miterlimit="10" fill="none" fill-rule="evenodd"/><path d="M225.5 340.5C213.902 340.5 204.5 335.048 204.5 328.322L204.5 277.679C204.5 270.953 213.902 265.5 225.5 265.5" stroke="#00204F" stroke-width="1.33333" stroke-linejoin="round" stroke-miterlimit="10" fill="none" fill-rule="evenodd"/><path d="M225.5 259.5C213.902 259.5 204.5 255.98 204.5 251.638L204.5 228.362C204.5 224.02 213.902 220.5 225.5 220.5" stroke="#00204F" stroke-width="1.33333" stroke-linejoin="round" stroke-miterlimit="10" fill="none" fill-rule="evenodd"/><path d="M0 0 32.6902 0.000104987" stroke="#00204F" stroke-width="1.33333" stroke-linejoin="round" stroke-miterlimit="10" fill="none" fill-rule="evenodd" transform="matrix(-1 -8.74228e-08 -8.74228e-08 1 205.19 531.5)"/><path d="M0 0 32.6902 0.000104987" stroke="#00204F" stroke-width="1.33333" stroke-linejoin="round" stroke-miterlimit="10" fill="none" fill-rule="evenodd" transform="matrix(-1 -8.74228e-08 -8.74228e-08 1 205.19 399.5)"/><path d="M0 0 32.6902 0.000104987" stroke="#00204F" stroke-width="1.33333" stroke-linejoin="round" stroke-miterlimit="10" fill="none" fill-rule="evenodd" transform="matrix(-1 -8.74228e-08 -8.74228e-08 1 205.19 303.5)"/><path d="M0 0 32.6902 0.000104987" stroke="#00204F" stroke-width="1.33333" stroke-linejoin="round" stroke-miterlimit="10" fill="none" fill-rule="evenodd" transform="matrix(-1 -8.74228e-08 -8.74228e-08 1 205.19 239.5)"/><rect x="284" y="265" width="215" height="76" fill="#01BCF3"/><text fill="#1A1A1A" font-family="Segoe UI,Segoe UI_MSFontService,sans-serif" font-weight="400" font-size="16" transform="translate(304.554 300)">Azure AD Authentication <tspan x="36.3734" y="19">Library (ADAL)</tspan></text><path d="M173 150 173 658.167" stroke="#D73B02" stroke-width="4" stroke-linejoin="round" stroke-miterlimit="10" stroke-dasharray="16 12" fill="none" fill-rule="evenodd"/><path d="M0-2 228.738-2C229.843-2 230.738-1.10457 230.738 0L230.738 9.26803 226.738 9.26803 226.738 0 228.738 2 0 2ZM234.738 7.26803 228.738 19.268 222.738 7.26803Z" fill="#D73B02" transform="matrix(-1 -8.74228e-08 -8.74228e-08 1 620.738 246)"/><rect x="620" y="227" width="499" height="38" fill="#0078D4"/><text fill="#FFFFFF" font-family="Segoe UI,Segoe UI_MSFontService,sans-serif" font-weight="400" font-size="16" transform="translate(784.595 253)">https://portal.azure.com</text></g></svg>