<svg width="1034" height="421" xmlns="http://www.w3.org/2000/svg" xmlns:xlink="http://www.w3.org/1999/xlink" overflow="hidden"><defs><clipPath id="clip0"><path d="M125 252 1159 252 1159 673 125 673Z" fill-rule="evenodd" clip-rule="evenodd"/></clipPath><clipPath id="clip1"><path d="M187 308 278 308 278 400 187 400Z" fill-rule="evenodd" clip-rule="evenodd"/></clipPath><clipPath id="clip2"><path d="M187 308 278 308 278 400 187 400Z" fill-rule="evenodd" clip-rule="evenodd"/></clipPath><clipPath id="clip3"><path d="M187 308 278 308 278 400 187 400Z" fill-rule="evenodd" clip-rule="evenodd"/></clipPath><clipPath id="clip4"><path d="M187 308 278 308 278 400 187 400Z" fill-rule="evenodd" clip-rule="evenodd"/></clipPath><linearGradient x1="232.606" y1="429.092" x2="232.606" y2="461.092" gradientUnits="userSpaceOnUse" spreadMethod="reflect" id="fill5"><stop offset="0" stop-color="#1A1A1A"/><stop offset="0.02917" stop-color="#1A1A1A"/><stop offset="0.3" stop-color="#1A1A1A"/><stop offset="1" stop-color="#1A1A1A"/></linearGradient><clipPath id="clip6"><path d="M753 425 849 425 849 517 753 517Z" fill-rule="evenodd" clip-rule="evenodd"/></clipPath><clipPath id="clip7"><path d="M753 425 849 425 849 517 753 517Z" fill-rule="evenodd" clip-rule="evenodd"/></clipPath><clipPath id="clip8"><path d="M753 425 849 425 849 517 753 517Z" fill-rule="evenodd" clip-rule="evenodd"/></clipPath><clipPath id="clip9"><path d="M753 425 849 425 849 517 753 517Z" fill-rule="evenodd" clip-rule="evenodd"/></clipPath><linearGradient x1="801.266" y1="530.947" x2="801.266" y2="562.947" gradientUnits="userSpaceOnUse" spreadMethod="reflect" id="fill10"><stop offset="0" stop-color="#1A1A1A"/><stop offset="0.02917" stop-color="#1A1A1A"/><stop offset="0.3" stop-color="#1A1A1A"/><stop offset="1" stop-color="#1A1A1A"/></linearGradient><clipPath id="clip11"><path d="M1003 306 1099 306 1099 402 1003 402Z" fill-rule="evenodd" clip-rule="evenodd"/></clipPath><clipPath id="clip12"><path d="M1003 306 1099 306 1099 402 1003 402Z" fill-rule="evenodd" clip-rule="evenodd"/></clipPath><clipPath id="clip13"><path d="M1003 306 1099 306 1099 402 1003 402Z" fill-rule="evenodd" clip-rule="evenodd"/></clipPath><linearGradient x1="1051.08" y1="429.092" x2="1051.08" y2="461.092" gradientUnits="userSpaceOnUse" spreadMethod="reflect" id="fill14"><stop offset="0" stop-color="#1A1A1A"/><stop offset="0.02917" stop-color="#1A1A1A"/><stop offset="0.3" stop-color="#1A1A1A"/><stop offset="1" stop-color="#1A1A1A"/></linearGradient><clipPath id="clip15"><path d="M592 531 688 531 688 622 592 622Z" fill-rule="evenodd" clip-rule="evenodd"/></clipPath><clipPath id="clip16"><path d="M592 531 688 531 688 622 592 622Z" fill-rule="evenodd" clip-rule="evenodd"/></clipPath><clipPath id="clip17"><path d="M592 531 688 531 688 622 592 622Z" fill-rule="evenodd" clip-rule="evenodd"/></clipPath><clipPath id="clip18"><path d="M592 531 688 531 688 622 592 622Z" fill-rule="evenodd" clip-rule="evenodd"/></clipPath><linearGradient x1="639.963" y1="639.844" x2="639.963" y2="671.844" gradientUnits="userSpaceOnUse" spreadMethod="reflect" id="fill19"><stop offset="0" stop-color="#1A1A1A"/><stop offset="0.02917" stop-color="#1A1A1A"/><stop offset="0.3" stop-color="#1A1A1A"/><stop offset="1" stop-color="#1A1A1A"/></linearGradient></defs><g clip-path="url(#clip0)" transform="translate(-125 -252)"><g clip-path="url(#clip1)"><g clip-path="url(#clip2)"><g clip-path="url(#clip3)"><g clip-path="url(#clip4)"><path d="M1110.59 971.117C1060.9 971.117 1060.9 971.117 1060.9 971.117 1058.02 971.117 1055.14 968.221 1055.14 965.081 1055.14 913.896 1055.14 913.896 1055.14 913.896 1055.14 910.033 1058.02 907.859 1060.9 907.859 1110.59 907.859 1110.59 907.859 1110.59 907.859 1114.19 907.859 1116.35 910.033 1116.35 913.896 1116.35 965.081 1116.35 965.081 1116.35 965.081 1116.35 968.221 1114.19 971.117 1110.59 971.117ZM1065.22 907.859C1065.22 899.167 1065.22 899.167 1065.22 899.167M1075.54 907.859C1075.54 899.167 1075.54 899.167 1075.54 899.167M1085.62 899.167C1085.62 907.859 1085.62 907.859 1085.62 907.859M1095.94 899.167C1095.94 907.859 1095.94 907.859 1095.94 907.859M1107.94 899.167C1107.94 907.859 1107.94 907.859 1107.94 907.859M1126.67 917.999C1116.35 917.999 1116.35 917.999 1116.35 917.999M1126.67 928.382C1116.35 928.382 1116.35 928.382 1116.35 928.382M1126.67 938.522C1116.35 938.522 1116.35 938.522 1116.35 938.522M1126.67 950.595C1116.35 950.595 1116.35 950.595 1116.35 950.595M1126.67 960.977C1116.35 960.977 1116.35 960.977 1116.35 960.977M1055.14 917.999C1046.5 917.999 1046.5 917.999 1046.5 917.999M1055.14 928.382C1046.5 928.382 1046.5 928.382 1046.5 928.382M1055.14 938.522C1046.5 938.522 1046.5 938.522 1046.5 938.522M1055.14 950.595C1046.5 950.595 1046.5 950.595 1046.5 950.595M1055.14 960.977C1046.5 960.977 1046.5 960.977 1046.5 960.977M1065.22 971.117C1065.22 981.5 1065.22 981.5 1065.22 981.5M1075.54 971.117C1075.54 981.5 1075.54 981.5 1075.54 981.5M1085.62 981.5C1085.62 971.117 1085.62 971.117 1085.62 971.117M1095.94 971.117C1095.94 981.5 1095.94 981.5 1095.94 981.5M1107.94 971.117C1107.94 981.5 1107.94 981.5 1107.94 981.5" stroke="#505050" stroke-width="4.33333" stroke-linecap="square" stroke-miterlimit="8" fill="none" fill-rule="evenodd" transform="matrix(1 0 -0 1.01099 -855.167 -596.667)"/></g></g></g></g><path d="M249.886 443.095C248.629 443.095 247.618 443.533 246.854 444.407 246.089 445.282 245.707 446.378 245.707 447.696L245.707 449.582C245.707 450.698 246.069 451.645 246.794 452.423 247.52 453.201 248.44 453.589 249.556 453.589 250.866 453.589 251.892 453.088 252.635 452.086 253.377 451.085 253.749 449.691 253.749 447.907 253.749 446.404 253.402 445.227 252.707 444.374 252.013 443.522 251.073 443.095 249.886 443.095ZM233.886 443.095C232.629 443.095 231.618 443.533 230.854 444.407 230.089 445.282 229.707 446.378 229.707 447.696L229.707 449.582C229.707 450.698 230.069 451.645 230.794 452.423 231.52 453.201 232.44 453.589 233.556 453.589 234.866 453.589 235.892 453.088 236.635 452.086 237.377 451.085 237.749 449.691 237.749 447.907 237.749 446.404 237.402 445.227 236.707 444.374 236.013 443.522 235.073 443.095 233.886 443.095ZM250.427 441.276C252.167 441.276 253.525 441.88 254.5 443.089 255.476 444.297 255.964 445.917 255.964 447.947 255.964 450.206 255.414 452.014 254.316 453.372 253.217 454.73 251.714 455.409 249.807 455.409 248.058 455.409 246.709 454.653 245.76 453.141L245.707 453.141 245.707 461.302 243.545 461.302 243.545 441.592 245.707 441.592 245.707 443.965 245.76 443.965C246.823 442.172 248.379 441.276 250.427 441.276ZM234.427 441.276C236.167 441.276 237.525 441.88 238.5 443.089 239.476 444.297 239.964 445.917 239.964 447.947 239.964 450.206 239.414 452.014 238.316 453.372 237.217 454.73 235.714 455.409 233.807 455.409 232.058 455.409 230.709 454.653 229.76 453.141L229.707 453.141 229.707 461.302 227.545 461.302 227.545 441.592 229.707 441.592 229.707 443.965 229.76 443.965C230.823 442.172 232.379 441.276 234.427 441.276ZM216.978 438.481C216.89 439.017 216.789 439.439 216.675 439.747L213.735 447.802 220.287 447.802 217.321 439.747C217.224 439.483 217.128 439.061 217.031 438.481ZM215.897 436.187 218.191 436.187 225.469 455.092 223.016 455.092 221.012 449.793 212.997 449.793 211.112 455.092 208.646 455.092Z" fill="url(#fill5)" fill-rule="evenodd"/><text fill="#000000" fill-opacity="0" font-family="Arial,Arial_MSFontService,sans-serif" font-size="25.1147" x="208.646" y="458.162">App</text><path d="M230.068 307.429 230.381 305.992C230.454 305.654 230.585 305.332 230.768 305.039L231.706 303.539C231.848 303.311 232.021 303.103 232.219 302.921L233.781 301.484 236.16 299.793 239.147 298.171 242.562 296.687 246.426 295.203 250.826 293.775 255.593 292.375 260.818 291.035 266.506 289.708 272.576 288.442 279.053 287.184 285.922 285.986 300.606 283.727 316.603 281.593 333.735 279.71 351.782 278.017 370.656 276.637 390.139 275.509 410.055 274.632 450.762 273.942 450.863 279.941 410.319 280.626 390.486 281.499 371.094 282.621 352.342 283.991 334.39 285.674 317.396 287.54 301.519 289.657 286.953 291.897 280.197 293.074 273.799 294.316 267.869 295.551 262.307 296.848 257.282 298.133 252.673 299.483 248.574 300.805 244.938 302.196 241.977 303.462 239.59 304.715 237.844 305.899 236.281 307.337 236.794 306.719 235.856 308.219 236.244 307.266 235.931 308.704ZM450.66 267.943C455.63 267.859 459.727 271.819 459.811 276.789 459.895 281.759 455.935 285.856 450.965 285.94 445.995 286.024 441.898 282.064 441.814 277.094 441.73 272.124 445.69 268.027 450.66 267.943Z" fill="#1A1A1A"/><path d="M426 276C426 262.745 436.745 252 450 252 463.255 252 474 262.745 474 276 474 289.255 463.255 300 450 300 436.745 300 426 289.255 426 276Z" fill="#1A1A1A" fill-rule="evenodd"/><text fill="#FFFFFF" font-family="Consolas,Consolas_MSFontService,sans-serif" font-weight="400" font-size="27" transform="translate(443.05 285)">1</text><g clip-path="url(#clip6)"><g clip-path="url(#clip7)"><g clip-path="url(#clip8)"><g clip-path="url(#clip9)"><path d="M1388.65 307.12 1388.65 332.113 1301.58 332.113 1301.58 283.535 1388.65 283.535 1388.65 307.12M1381.19 361.683 1376.92 355.347 1313.31 355.347 1304.07 368.372 1386.16 368.372 1381.19 361.683M1329.66 344.082 1360.22 344.082M1345.3 332.466 1345.3 343.731" stroke="#505050" stroke-width="4.46512" stroke-linecap="square" stroke-miterlimit="8" fill="none" fill-rule="evenodd" transform="matrix(1 0 -0 1.00508 -544.116 142.268)"/></g></g></g></g><path d="M822.609 550.118 819.353 550.566C818.351 550.707 817.595 550.955 817.085 551.311 816.575 551.667 816.32 552.298 816.32 553.203 816.32 553.862 816.555 554.401 817.026 554.818 817.496 555.236 818.122 555.444 818.904 555.444 819.976 555.444 820.862 555.069 821.561 554.317 822.26 553.566 822.609 552.614 822.609 551.463ZM849.908 544.95C848.52 544.95 847.421 545.423 846.612 546.367 845.804 547.312 845.399 548.615 845.399 550.276 845.399 551.876 845.808 553.137 846.625 554.06 847.443 554.983 848.537 555.444 849.908 555.444 851.306 555.444 852.38 554.992 853.132 554.086 853.883 553.181 854.259 551.894 854.259 550.224 854.259 548.536 853.883 547.235 853.132 546.321 852.38 545.407 851.306 544.95 849.908 544.95ZM761.908 544.95C760.52 544.95 759.421 545.423 758.612 546.367 757.804 547.312 757.399 548.615 757.399 550.276 757.399 551.876 757.808 553.137 758.625 554.06 759.443 554.983 760.537 555.444 761.908 555.444 763.306 555.444 764.38 554.992 765.132 554.086 765.883 553.181 766.259 551.894 766.259 550.224 766.259 548.536 765.883 547.235 765.132 546.321 764.38 545.407 763.306 544.95 761.908 544.95ZM837.107 543.447 839.27 543.447 839.27 556.947 837.107 556.947ZM777.855 543.21C778.418 543.21 778.849 543.272 779.147 543.395L779.147 545.636C778.77 545.346 778.225 545.201 777.513 545.201 776.59 545.201 775.819 545.636 775.199 546.506 774.579 547.376 774.27 548.563 774.27 550.065L774.27 556.947 772.107 556.947 772.107 543.447 774.27 543.447 774.27 546.229 774.322 546.229C774.63 545.28 775.1 544.539 775.733 544.008 776.366 543.476 777.073 543.21 777.855 543.21ZM866.752 543.131C868.229 543.131 869.358 543.608 870.14 544.561 870.922 545.515 871.313 546.893 871.313 548.694L871.313 556.947 869.151 556.947 869.151 549.248C869.151 546.383 868.105 544.95 866.014 544.95 864.933 544.95 864.038 545.357 863.331 546.17 862.623 546.983 862.27 548.009 862.27 549.248L862.27 556.947 860.107 556.947 860.107 543.447 862.27 543.447 862.27 545.689 862.322 545.689C863.342 543.983 864.818 543.131 866.752 543.131ZM850.066 543.131C852.079 543.131 853.65 543.751 854.78 544.99 855.909 546.229 856.474 547.947 856.474 550.145 856.474 552.298 855.865 554.023 854.648 555.319 853.43 556.616 851.798 557.264 849.75 557.264 847.755 557.264 846.162 556.633 844.971 555.372 843.78 554.111 843.185 552.439 843.185 550.356 843.185 548.088 843.804 546.317 845.043 545.043 846.283 543.768 847.957 543.131 850.066 543.131ZM820.012 543.131C823.185 543.131 824.771 544.81 824.771 548.167L824.771 556.947 822.609 556.947 822.609 554.838 822.556 554.838C821.616 556.455 820.231 557.264 818.403 557.264 817.059 557.264 816.006 556.908 815.246 556.196 814.486 555.484 814.105 554.539 814.105 553.361 814.105 550.839 815.591 549.371 818.562 548.958L822.609 548.391C822.609 546.097 821.682 544.95 819.827 544.95 818.201 544.95 816.733 545.504 815.424 546.611L815.424 544.397C816.751 543.553 818.28 543.131 820.012 543.131ZM799.484 543.131C800.653 543.131 801.699 543.333 802.622 543.737L802.622 545.926C801.629 545.275 800.486 544.95 799.194 544.95 798.79 544.95 798.425 544.996 798.1 545.089 797.775 545.181 797.496 545.311 797.263 545.478 797.03 545.645 796.85 545.845 796.722 546.077 796.595 546.31 796.531 546.567 796.531 546.849 796.531 547.2 796.595 547.495 796.722 547.732 796.85 547.969 797.037 548.18 797.283 548.365 797.529 548.549 797.828 548.716 798.179 548.866 798.531 549.015 798.931 549.178 799.379 549.354 799.976 549.582 800.513 549.817 800.987 550.059 801.462 550.301 801.866 550.573 802.2 550.876 802.534 551.18 802.791 551.529 802.971 551.924 803.152 552.32 803.242 552.79 803.242 553.335 803.242 554.003 803.094 554.583 802.8 555.075 802.506 555.567 802.112 555.976 801.62 556.301 801.128 556.627 800.561 556.868 799.919 557.026 799.278 557.185 798.605 557.264 797.902 557.264 796.514 557.264 795.31 556.996 794.29 556.46L794.29 554.139C795.468 555.009 796.764 555.444 798.179 555.444 800.078 555.444 801.027 554.812 801.027 553.546 801.027 553.186 800.946 552.88 800.783 552.63 800.62 552.379 800.401 552.157 800.124 551.964 799.847 551.771 799.522 551.597 799.148 551.443 798.775 551.289 798.373 551.129 797.942 550.962 797.344 550.725 796.819 550.485 796.366 550.243 795.914 550.002 795.536 549.729 795.233 549.426 794.929 549.123 794.701 548.778 794.547 548.391 794.393 548.004 794.316 547.552 794.316 547.033 794.316 546.4 794.461 545.84 794.751 545.352 795.042 544.865 795.428 544.456 795.912 544.126 796.395 543.797 796.947 543.548 797.566 543.381 798.186 543.214 798.825 543.131 799.484 543.131ZM762.066 543.131C764.079 543.131 765.65 543.751 766.78 544.99 767.909 546.229 768.474 547.947 768.474 550.145 768.474 552.298 767.865 554.023 766.648 555.319 765.43 556.616 763.798 557.264 761.75 557.264 759.755 557.264 758.162 556.633 756.971 555.372 755.78 554.111 755.185 552.439 755.185 550.356 755.185 548.088 755.804 546.317 757.043 545.043 758.283 543.768 759.957 543.131 762.066 543.131ZM830.968 539.453 830.968 543.447 834.37 543.447 834.37 545.293 830.968 545.293 830.968 552.9C830.968 553.805 831.122 554.451 831.43 554.838 831.737 555.225 832.247 555.418 832.959 555.418 833.504 555.418 833.974 555.269 834.37 554.97L834.37 556.815C833.86 557.097 833.188 557.237 832.353 557.237 829.988 557.237 828.806 555.919 828.806 553.282L828.806 545.293 826.486 545.293 826.486 543.447 828.806 543.447 828.806 540.151ZM808.968 539.453 808.968 543.447 812.37 543.447 812.37 545.293 808.968 545.293 808.968 552.9C808.968 553.805 809.122 554.451 809.43 554.838 809.737 555.225 810.247 555.418 810.959 555.418 811.504 555.418 811.974 555.269 812.37 554.97L812.37 556.815C811.86 557.097 811.188 557.237 810.353 557.237 807.988 557.237 806.806 555.919 806.806 553.282L806.806 545.293 804.486 545.293 804.486 543.447 806.806 543.447 806.806 540.151ZM730.262 538.042 732.701 538.042 736.722 552.544C736.889 553.15 736.994 553.783 737.038 554.442L737.104 554.442C737.148 553.977 737.284 553.344 737.513 552.544L741.692 538.042 743.814 538.042 747.822 552.649C747.963 553.15 748.068 553.739 748.139 554.416L748.191 554.416C748.226 553.959 748.345 553.353 748.547 552.597L752.41 538.042 754.81 538.042 749.47 556.947 746.873 556.947 742.984 543.131C742.817 542.542 742.716 541.9 742.681 541.206L742.628 541.206C742.575 541.857 742.461 542.489 742.285 543.105L738.37 556.947 735.799 556.947ZM838.215 537.211C838.61 537.211 838.947 537.346 839.223 537.614 839.5 537.882 839.639 538.218 839.639 538.622 839.639 539.009 839.5 539.338 839.223 539.611 838.947 539.883 838.61 540.02 838.215 540.02 837.828 540.02 837.499 539.888 837.226 539.624 836.954 539.36 836.817 539.026 836.817 538.622 836.817 538.218 836.954 537.882 837.226 537.614 837.499 537.346 837.828 537.211 838.215 537.211ZM781.107 536.961 783.27 536.961 783.27 549.63 783.322 549.63 788.991 543.447 791.826 543.447 785.563 549.96 792.313 556.947 789.281 556.947 783.322 550.461 783.27 550.461 783.27 556.947 781.107 556.947Z" fill="url(#fill10)" fill-rule="evenodd"/><text fill="#000000" fill-opacity="0" font-family="Arial,Arial_MSFontService,sans-serif" font-size="20.3027" x="730.262" y="554.726">Workstation</text><path d="M0.130312-2.99717 7.31781-2.68467 14.7884-1.65888 22.0286-0.0529446 29.1596 2.20372 35.9801 4.89846 42.5705 8.11874 48.8324 11.7885 54.6083 15.8639 59.9803 20.3181 64.8425 25.0377 69.1528 30.0476 72.7944 35.3772 75.7694 40.8958 77.9841 46.5392 79.4162 52.3586C79.4532 52.5118 79.4781 52.6675 79.4905 52.8246L79.928 58.3246 80.3655 63.8246 80.2912 63.3586 81.6037 68.7961 83.5466 73.7268 86.2069 78.6458 89.4721 83.3629 93.4152 87.9997 97.905 92.3502 102.869 96.517 108.264 100.217 114.145 103.664 120.32 106.681 126.753 109.283 133.386 111.321 139.492 112.362 138.461 118.273 131.614 117.054 124.497 114.842 117.68 112.069 111.105 108.836 104.861 105.158 99.006 101.108 93.72 96.6498 88.8348 91.8753 84.5279 86.7621 80.9181 81.4792 77.9534 75.8982 75.7712 70.2039 74.4587 64.7664C74.4218 64.6132 74.3969 64.4575 74.3844 64.3004L73.9469 58.8004 73.5094 53.3004 73.5837 53.7664 72.3909 48.7108 70.4806 43.7292 67.8306 38.7478 64.5972 33.9524 60.6575 29.3373 56.1447 24.9319 51.1417 20.7611 45.7926 16.9615 39.9295 13.5063 33.7699 10.4765 27.3404 7.92128 20.7214 5.80294 13.9616 4.28388 7.05719 3.30967-0.130312 2.99717ZM137.044 106.029 153.875 117.062 134.95 123.907Z" fill="#1A1A1A" transform="matrix(1 0 0 -1 849 471.049)"/><path d="M904 414C904 400.745 914.745 390 928 390 941.255 390 952 400.745 952 414 952 427.255 941.255 438 928 438 914.745 438 904 427.255 904 414Z" fill="#1A1A1A" fill-rule="evenodd"/><text fill="#FFFFFF" font-family="Consolas,Consolas_MSFontService,sans-serif" font-weight="400" font-size="27" transform="translate(921.002 423)">2</text><g clip-path="url(#clip11)"><g clip-path="url(#clip12)"><g clip-path="url(#clip13)"><path d="M1051 402.002C1048.64 402.002 1046.41 401.08 1044.74 399.406L1005.59 360.261C1003.94 358.612 1003 356.333 1003 354 1003 351.669 1003.94 349.388 1005.59 347.741L1044.74 308.596C1046.41 306.922 1048.64 306 1051 306 1053.37 306 1055.59 306.922 1057.26 308.596L1096.4 347.741C1098.08 349.407 1099 351.633 1099 354 1099 356.367 1098.08 358.593 1096.4 360.265L1057.26 399.406C1055.59 401.08 1053.37 402.002 1051 402.002" fill="#59B4D9"/><path d="M1077.14 346.499C1072.99 346.499 1069.63 349.859 1069.63 354.004 1069.63 355.524 1070.09 356.936 1070.87 358.118L1056 372.987C1055.61 372.71 1055.18 372.48 1054.74 372.271L1054.74 334.337C1056.98 333.039 1058.51 330.643 1058.51 327.867 1058.51 323.722 1055.15 320.362 1051 320.362 1046.86 320.362 1043.5 323.722 1043.5 327.867 1043.5 330.643 1045.02 333.039 1047.26 334.337L1047.26 372.269C1046.84 372.468 1046.43 372.684 1046.05 372.947L1031.16 358.061C1031.92 356.89 1032.37 355.501 1032.37 354.004 1032.37 349.859 1029.01 346.499 1024.86 346.499 1020.72 346.499 1017.36 349.859 1017.36 354.004 1017.36 358.149 1020.72 361.509 1024.86 361.509 1025.72 361.509 1026.54 361.334 1027.31 361.068L1042.96 376.716C1042.51 377.768 1042.26 378.924 1042.26 380.139 1042.26 384.964 1046.17 388.877 1051 388.877 1055.82 388.877 1059.73 384.964 1059.73 380.139 1059.73 378.947 1059.49 377.812 1059.06 376.777L1074.75 361.087C1075.51 361.34 1076.3 361.509 1077.14 361.509 1081.28 361.509 1084.64 358.149 1084.64 354.004 1084.64 349.859 1081.28 346.499 1077.14 346.499Z" fill="#FFFFFF"/><path d="M1080.7 353.968 1077.28 357.394 1049.21 329.328 1052.63 325.902Z" fill="#FFFFFF" fill-opacity="0.5"/><path d="M1049.4 325.924 1052.82 329.351 1024.75 357.422 1021.33 353.996Z" fill="#FFFFFF" fill-opacity="0.5"/><path d="M1056.12 380.139C1056.12 383.011 1053.79 385.34 1050.91 385.34 1048.04 385.34 1045.71 383.011 1045.71 380.139 1045.71 377.267 1048.04 374.938 1050.91 374.938 1053.78 374.938 1056.12 377.267 1056.12 380.139" fill="#B8D432"/><path d="M1055.17 327.867C1055.17 330.173 1053.31 332.041 1051 332.041 1048.69 332.041 1046.83 330.173 1046.83 327.867 1046.83 325.561 1048.69 323.693 1051 323.693 1053.31 323.693 1055.17 325.561 1055.17 327.867" fill="#B8D432"/><path d="M1029.04 354.002C1029.04 356.308 1027.17 358.176 1024.87 358.176 1022.56 358.176 1020.69 356.308 1020.69 354.002 1020.69 351.696 1022.56 349.828 1024.87 349.828 1027.17 349.828 1029.04 351.696 1029.04 354.002" fill="#B8D432"/><path d="M1081.31 354.002C1081.31 356.308 1079.44 358.176 1077.14 358.176 1074.83 358.176 1072.96 356.308 1072.96 354.002 1072.96 351.696 1074.83 349.828 1077.14 349.828 1079.44 349.828 1081.31 351.696 1081.31 354.002" fill="#B8D432"/><path d="M1057.26 308.596C1055.59 306.922 1053.37 306 1051 306 1048.64 306 1046.42 306.922 1044.74 308.596L1005.6 347.741C1003.94 349.388 1003 351.669 1003 354 1003 356.333 1003.94 358.614 1005.6 360.261L1027.76 382.426 1069.45 320.782 1057.26 308.596Z" fill="#FFFFFF" fill-opacity="0.1"/></g></g></g><path d="M1056.29 443.095C1055.27 443.095 1054.41 443.46 1053.7 444.19 1052.98 444.919 1052.55 445.873 1052.38 447.05L1059.67 447.05C1059.66 445.802 1059.36 444.831 1058.77 444.137 1058.17 443.442 1057.35 443.095 1056.29 443.095ZM1026.74 441.592 1028.89 441.592 1028.89 449.318C1028.89 452.166 1029.98 453.589 1032.16 453.589 1033.22 453.589 1034.08 453.201 1034.76 452.423 1035.45 451.645 1035.79 450.628 1035.79 449.371L1035.79 441.592 1037.95 441.592 1037.95 455.092 1035.79 455.092 1035.79 452.957 1035.73 452.957C1034.84 454.591 1033.45 455.409 1031.57 455.409 1028.35 455.409 1026.74 453.493 1026.74 449.661ZM1014.03 441.592 1024.45 441.592 1024.45 442.212 1016.46 453.247 1024.37 453.247 1024.37 455.092 1013.28 455.092 1013.28 454.42 1021.27 443.438 1014.03 443.438ZM1047.78 441.355C1048.34 441.355 1048.77 441.417 1049.07 441.54L1049.07 443.781C1048.7 443.491 1048.15 443.346 1047.44 443.346 1046.52 443.346 1045.74 443.781 1045.12 444.651 1044.51 445.521 1044.2 446.708 1044.2 448.211L1044.2 455.092 1042.03 455.092 1042.03 441.592 1044.2 441.592 1044.2 444.374 1044.25 444.374C1044.56 443.425 1045.03 442.684 1045.66 442.153 1046.29 441.621 1047 441.355 1047.78 441.355ZM1056.33 441.276C1058.1 441.276 1059.47 441.847 1060.43 442.99 1061.4 444.132 1061.88 445.719 1061.88 447.749L1061.88 448.883 1052.35 448.883C1052.39 450.386 1052.79 451.546 1053.56 452.363 1054.34 453.181 1055.4 453.589 1056.76 453.589 1058.28 453.589 1059.67 453.088 1060.95 452.086L1060.95 454.117C1059.76 454.978 1058.19 455.409 1056.24 455.409 1054.33 455.409 1052.84 454.796 1051.75 453.57 1050.66 452.344 1050.11 450.619 1050.11 448.395 1050.11 446.294 1050.71 444.583 1051.9 443.26 1053.09 441.937 1054.57 441.276 1056.33 441.276ZM1079.47 438.481C1079.38 439.017 1079.28 439.439 1079.16 439.747L1076.22 447.802 1082.78 447.802 1079.81 439.747C1079.71 439.483 1079.62 439.061 1079.52 438.481ZM1004.47 438.481C1004.38 439.017 1004.28 439.439 1004.16 439.747L1001.22 447.802 1007.78 447.802 1004.81 439.747C1004.71 439.483 1004.62 439.061 1004.52 438.481ZM1092.54 438.191 1092.54 453.088 1095.36 453.088C1097.84 453.088 1099.77 452.425 1101.15 451.098 1102.53 449.771 1103.22 447.89 1103.22 445.455 1103.22 440.612 1100.64 438.191 1095.49 438.191ZM1090.32 436.187 1095.54 436.187C1102.21 436.187 1105.54 439.259 1105.54 445.402 1105.54 448.32 1104.61 450.665 1102.76 452.436 1100.91 454.207 1098.44 455.092 1095.33 455.092L1090.32 455.092ZM1078.39 436.187 1080.68 436.187 1087.96 455.092 1085.51 455.092 1083.5 449.793 1075.49 449.793 1073.6 455.092 1071.13 455.092ZM1003.39 436.187 1005.68 436.187 1012.96 455.092 1010.51 455.092 1008.5 449.793 1000.49 449.793 998.6 455.092 996.135 455.092Z" fill="url(#fill14)" fill-rule="evenodd"/><text fill="#000000" fill-opacity="0" font-family="Arial,Arial_MSFontService,sans-serif" font-size="19.2217" x="996.135" y="453.006">Azure AD</text><path d="M0-3 33.9375-3 67.5625-3 100.75-3 133.062-3 164.312-3 179.5-3 194.25-3 208.687-3 222.625-3 236.125-3 249.125-3 261.625-3 273.5-3 284.812-3 295.5-3 305.5-3 314.812-3 323.437-3 331.25-3 338.25-3 344.437-3 349.812-3 354.25-3 357.75-3 360.312-3 361.812-3 362.375-3 362.875-3 364.437-3 367-3 370.5-3 374.937-3 380.312-3 386.5-3 393.5-3 401.312-3 409.937-3 419.25-3 429.25-3 439.937-3 451.25-3 463.125-3 475.625-3 488.625-3 502.125-3 516.062-3 530.437-3 545.25-3 560.437-3 591.687-3 624-3 657.125-3 690.812-3 709.75-3 709.75 3 690.812 3 657.125 3 624 3 591.687 3 560.437 3 545.25 3 530.437 3 516.062 3 502.125 3 488.625 3 475.625 3 463.125 3 451.25 3 439.937 3 429.25 3 419.25 3 409.937 3 401.312 3 393.5 3 386.5 3 380.312 3 374.937 3 370.5 3 367 3 364.437 3 362.875 3 362.375 3 361.812 3 360.312 3 357.75 3 354.25 3 349.812 3 344.437 3 338.25 3 331.25 3 323.437 3 314.812 3 305.5 3 295.5 3 284.812 3 273.5 3 261.625 3 249.125 3 236.125 3 222.625 3 208.687 3 194.25 3 179.5 3 164.312 3 133.062 3 100.75 3 67.5625 3 33.9375 3 0 3ZM706.75-9 724.75 0 706.75 9Z" fill="#1A1A1A" transform="matrix(-1 -8.74228e-08 -8.74228e-08 1 1002.71 354)"/><path d="M619 354C619 340.745 629.745 330 643 330 656.255 330 667 340.745 667 354 667 367.255 656.255 378 643 378 629.745 378 619 367.255 619 354Z" fill="#1A1A1A" fill-rule="evenodd"/><text fill="#FFFFFF" font-family="Consolas,Consolas_MSFontService,sans-serif" font-weight="400" font-size="27" transform="translate(635.928 363)">3</text><path d="M0.304541-2.9845 3.36704-2.672C3.54296-2.65405 3.71664-2.62065 3.88666-2.57207L6.94916-1.69707C7.10374-1.65291 7.25419-1.59652 7.39972-1.52821L10.4622-0.0907109 13.8539 2.02726 17.1706 4.75784 20.3713 7.94118 23.4854 11.6339 26.5296 15.7061 29.4714 20.3315 32.3401 25.2363 35.1575 30.608 37.8944 36.3317 43.0821 48.7846 47.9566 62.6964 52.3781 77.716 56.4098 93.7697 59.937 110.701 62.9572 128.37 65.3497 146.674 67.1118 165.407 68.2447 184.447 68.6244 203.628 68.9994 222.691 70.1197 241.51 71.8618 260.032 74.2247 278.112 77.2072 295.557 80.6267 312.274 84.5973 328.082 89.0008 342.896 93.7092 356.454 98.7717 368.665 101.394 374.144 104.088 379.22 106.849 384.001 109.632 388.227 112.423 392.043 115.235 395.384 114.683 394.873 119.479 398.304 115.987 403.183 111.192 399.752C110.987 399.606 110.802 399.434 110.64 399.241L107.577 395.582 104.618 391.523 101.651 386.999 98.7869 382.03 95.9806 376.731 93.2283 370.96 88.0408 358.421 83.2492 344.604 78.7777 329.543 74.7483 313.476 71.2928 296.568 68.2753 278.888 65.8882 260.593 64.1303 241.865 63.0006 222.809 62.6256 203.746 62.2553 184.803 61.1382 165.968 59.4003 147.451 57.0428 129.38 54.063 111.924 50.5902 95.2303 46.6219 79.409 42.2934 64.6786 37.5429 51.0903 32.4806 38.9183 29.8425 33.392 27.1599 28.2637 24.4036 23.5435 21.7204 19.2939 18.8896 15.4911 16.1287 12.1838 13.3294 9.36716 10.6461 7.09774 7.91278 5.34071 4.85028 3.90321 5.30084 4.07207 2.23834 3.19707 2.75796 3.297-0.304541 2.9845ZM119.021 391.344 131.187 407.375 111.063 407.49Z" fill="#1A1A1A" transform="matrix(-4.37114e-08 1 1 4.37114e-08 233 400)"/><path d="M394 466C394 452.745 404.745 442 418 442 431.255 442 442 452.745 442 466 442 479.255 431.255 490 418 490 404.745 490 394 479.255 394 466Z" fill="#1A1A1A" fill-rule="evenodd"/><text fill="#FFFFFF" font-family="Consolas,Consolas_MSFontService,sans-serif" font-weight="400" font-size="27" transform="translate(410.575 475)">4</text><g clip-path="url(#clip15)"><g clip-path="url(#clip16)"><g clip-path="url(#clip17)"><g clip-path="url(#clip18)"><path d="M1538.95 287.957C1538.95 284.664 1541.51 281.878 1545.09 281.878 1548.42 281.878 1551.23 284.664 1551.23 287.957 1551.23 291.502 1548.42 294.29 1545.09 294.29 1541.51 294.29 1538.95 291.502 1538.95 287.957ZM1515.93 318.857C1515.93 323.922 1520.28 328.228 1525.39 328.228 1530.77 328.228 1535.12 323.922 1535.12 318.857 1535.12 313.537 1530.77 309.231 1525.39 309.231 1520.28 309.231 1515.93 313.537 1515.93 318.857ZM1531.28 351.023C1531.28 359.381 1537.93 366.22 1546.37 366.22 1554.82 366.22 1561.72 359.381 1561.72 351.023 1561.72 342.664 1554.82 335.826 1546.37 335.826 1537.93 335.826 1531.28 342.664 1531.28 351.023ZM1550.21 309.74C1550.21 315.311 1554.82 319.616 1560.45 319.616 1565.82 319.616 1570.42 315.311 1570.42 309.74 1570.42 304.419 1565.82 299.861 1560.45 299.861 1554.82 299.861 1550.21 304.419 1550.21 309.74ZM1574.26 342.917C1574.26 351.529 1580.91 358.622 1589.36 358.622 1597.8 358.622 1604.71 351.529 1604.71 342.917 1604.71 334.307 1597.8 327.214 1589.36 327.214 1580.91 327.214 1574.26 334.307 1574.26 342.917ZM1574.26 345.199C1561.47 348.237 1561.47 348.237 1561.47 348.237M1534.86 317.084C1550.72 312.272 1550.72 312.272 1550.72 312.272M1550.98 336.587C1557.37 319.363 1557.37 319.363 1557.37 319.363M1537.93 338.358C1530.51 326.708 1530.51 326.708 1530.51 326.708M1575.29 336.84C1534.09 322.655 1534.09 322.655 1534.09 322.655M1542.02 293.528C1530.77 311.005 1530.77 311.005 1530.77 311.005M1579.63 331.014C1567.1 317.084 1567.1 317.084 1567.1 317.084M1544.58 335.826C1545.09 294.29 1545.09 294.29 1545.09 294.29M1548.16 293.275C1554.56 301.634 1554.56 301.634 1554.56 301.634" stroke="#505050" stroke-width="4.43902" stroke-linecap="square" stroke-miterlimit="8" fill="none" fill-rule="evenodd" transform="matrix(1.00588 0 -0 1 -930.605 251.341)"/></g></g></g></g><path d="M701.08 659.015 697.823 659.463C696.821 659.603 696.066 659.852 695.556 660.208 695.046 660.564 694.791 661.194 694.791 662.1 694.791 662.759 695.026 663.297 695.496 663.715 695.967 664.132 696.593 664.341 697.375 664.341 698.447 664.341 699.333 663.965 700.032 663.214 700.73 662.462 701.08 661.511 701.08 660.359ZM712.92 653.847C711.663 653.847 710.652 654.284 709.887 655.158 709.123 656.033 708.74 657.129 708.74 658.448L708.74 660.333C708.74 661.449 709.103 662.396 709.828 663.174 710.553 663.952 711.474 664.341 712.59 664.341 713.9 664.341 714.926 663.84 715.668 662.838 716.411 661.836 716.782 660.443 716.782 658.659 716.782 657.156 716.435 655.978 715.741 655.125 715.047 654.273 714.106 653.847 712.92 653.847ZM631.379 653.847C629.99 653.847 628.892 654.319 628.083 655.264 627.275 656.209 626.87 657.512 626.87 659.173 626.87 660.772 627.279 662.034 628.096 662.956 628.914 663.879 630.008 664.341 631.379 664.341 632.777 664.341 633.851 663.888 634.602 662.983 635.354 662.078 635.73 660.79 635.73 659.12 635.73 657.433 635.354 656.132 634.602 655.218 633.851 654.304 632.777 653.847 631.379 653.847ZM604.379 653.847C602.99 653.847 601.892 654.319 601.083 655.264 600.275 656.209 599.87 657.512 599.87 659.173 599.87 660.772 600.279 662.034 601.096 662.956 601.914 663.879 603.008 664.341 604.379 664.341 605.777 664.341 606.851 663.888 607.602 662.983 608.354 662.078 608.73 660.79 608.73 659.12 608.73 657.433 608.354 656.132 607.602 655.218 606.851 654.304 605.777 653.847 604.379 653.847ZM570.578 652.344 572.74 652.344 572.74 665.844 570.578 665.844ZM689.326 652.106C689.889 652.106 690.319 652.168 690.618 652.291L690.618 654.532C690.24 654.242 689.695 654.097 688.984 654.097 688.061 654.097 687.289 654.532 686.67 655.402 686.05 656.272 685.74 657.459 685.74 658.962L685.74 665.844 683.578 665.844 683.578 652.344 685.74 652.344 685.74 655.125 685.793 655.125C686.101 654.176 686.571 653.436 687.204 652.904 687.837 652.372 688.544 652.106 689.326 652.106ZM595.326 652.106C595.889 652.106 596.32 652.168 596.618 652.291L596.618 654.532C596.24 654.242 595.695 654.097 594.984 654.097 594.061 654.097 593.289 654.532 592.67 655.402 592.05 656.272 591.74 657.459 591.74 658.962L591.74 665.844 589.578 665.844 589.578 652.344 591.74 652.344 591.74 655.125 591.793 655.125C592.101 654.176 592.571 653.436 593.204 652.904 593.837 652.372 594.544 652.106 595.326 652.106ZM713.46 652.027C715.2 652.027 716.558 652.632 717.534 653.84 718.509 655.049 718.997 656.668 718.997 658.698 718.997 660.957 718.448 662.765 717.349 664.123 716.251 665.481 714.748 666.16 712.84 666.16 711.091 666.16 709.742 665.404 708.793 663.893L708.74 663.893 708.74 672.053 706.578 672.053 706.578 652.344 708.74 652.344 708.74 654.717 708.793 654.717C709.857 652.924 711.412 652.027 713.46 652.027ZM698.483 652.027C701.655 652.027 703.242 653.706 703.242 657.063L703.242 665.844 701.08 665.844 701.08 663.734 701.027 663.734C700.087 665.352 698.702 666.16 696.874 666.16 695.529 666.16 694.477 665.804 693.717 665.092 692.956 664.38 692.576 663.435 692.576 662.258 692.576 659.735 694.062 658.268 697.032 657.854L701.08 657.288C701.08 654.994 700.152 653.847 698.298 653.847 696.672 653.847 695.204 654.4 693.895 655.508L693.895 653.293C695.222 652.449 696.751 652.027 698.483 652.027ZM631.537 652.027C633.55 652.027 635.121 652.647 636.25 653.886 637.38 655.125 637.944 656.844 637.944 659.041 637.944 661.194 637.336 662.919 636.119 664.216 634.901 665.512 633.269 666.16 631.221 666.16 629.226 666.16 627.633 665.529 626.442 664.268 625.251 663.007 624.655 661.335 624.655 659.252 624.655 656.984 625.275 655.213 626.514 653.939 627.754 652.664 629.428 652.027 631.537 652.027ZM617.955 652.027C619.124 652.027 620.17 652.229 621.093 652.634L621.093 654.822C620.1 654.172 618.957 653.847 617.665 653.847 617.261 653.847 616.896 653.893 616.571 653.985 616.246 654.077 615.967 654.207 615.734 654.374 615.501 654.541 615.321 654.741 615.193 654.974 615.066 655.207 615.002 655.464 615.002 655.745 615.002 656.097 615.066 656.391 615.193 656.628 615.321 656.866 615.508 657.077 615.754 657.261 616 657.446 616.299 657.613 616.65 657.762 617.002 657.912 617.402 658.074 617.85 658.25 618.447 658.478 618.984 658.714 619.458 658.955 619.933 659.197 620.337 659.469 620.671 659.773 621.005 660.076 621.262 660.425 621.442 660.821 621.622 661.216 621.713 661.686 621.713 662.231 621.713 662.899 621.565 663.479 621.271 663.972 620.977 664.464 620.583 664.872 620.091 665.198 619.599 665.523 619.032 665.765 618.39 665.923 617.749 666.081 617.076 666.16 616.373 666.16 614.984 666.16 613.78 665.892 612.761 665.356L612.761 663.036C613.939 663.906 615.235 664.341 616.65 664.341 618.549 664.341 619.498 663.708 619.498 662.442 619.498 662.082 619.416 661.777 619.254 661.526 619.091 661.276 618.872 661.054 618.595 660.86 618.318 660.667 617.993 660.493 617.619 660.34 617.246 660.186 616.843 660.025 616.413 659.858 615.815 659.621 615.29 659.382 614.837 659.14 614.385 658.898 614.007 658.626 613.704 658.322 613.4 658.019 613.172 657.674 613.018 657.288 612.864 656.901 612.787 656.448 612.787 655.93 612.787 655.297 612.932 654.737 613.222 654.249 613.512 653.761 613.899 653.352 614.383 653.023 614.866 652.693 615.417 652.445 616.037 652.278 616.657 652.111 617.296 652.027 617.955 652.027ZM604.537 652.027C606.55 652.027 608.121 652.647 609.25 653.886 610.38 655.125 610.944 656.844 610.944 659.041 610.944 661.194 610.336 662.919 609.119 664.216 607.901 665.512 606.269 666.16 604.221 666.16 602.226 666.16 600.633 665.529 599.442 664.268 598.251 663.007 597.655 661.335 597.655 659.252 597.655 656.984 598.275 655.213 599.514 653.939 600.754 652.664 602.428 652.027 604.537 652.027ZM583.669 652.027C584.856 652.027 585.902 652.247 586.807 652.686L586.807 654.901C585.805 654.198 584.733 653.847 583.59 653.847 582.21 653.847 581.079 654.341 580.195 655.33 579.312 656.319 578.87 657.617 578.87 659.226 578.87 660.808 579.286 662.056 580.116 662.97 580.947 663.884 582.061 664.341 583.458 664.341 584.636 664.341 585.743 663.95 586.78 663.167L586.78 665.224C585.743 665.848 584.513 666.16 583.089 666.16 581.164 666.16 579.611 665.534 578.429 664.281 577.247 663.029 576.655 661.405 576.655 659.41 576.655 657.186 577.293 655.4 578.567 654.051 579.841 652.702 581.542 652.027 583.669 652.027ZM652.439 648.349 652.439 652.344 655.841 652.344 655.841 654.189 652.439 654.189 652.439 661.796C652.439 662.702 652.593 663.348 652.901 663.734 653.208 664.121 653.718 664.314 654.43 664.314 654.975 664.314 655.445 664.165 655.841 663.866L655.841 665.712C655.331 665.993 654.658 666.134 653.823 666.134 651.459 666.134 650.277 664.815 650.277 662.179L650.277 654.189 647.957 654.189 647.957 652.344 650.277 652.344 650.277 649.048ZM546.868 646.938 549.795 646.938 555.596 660.122C556.044 661.133 556.334 661.889 556.466 662.39L556.545 662.39C556.923 661.352 557.226 660.579 557.455 660.069L563.374 646.938 566.143 646.938 566.143 665.844 563.941 665.844 563.941 653.161C563.941 652.159 564.003 650.933 564.126 649.483L564.073 649.483C563.862 650.335 563.673 650.946 563.506 651.315L557.046 665.844 555.965 665.844 549.518 651.421C549.334 650.999 549.145 650.353 548.951 649.483L548.899 649.483C548.969 650.239 549.004 651.474 549.004 653.187L549.004 665.844 546.868 665.844ZM674.438 646.622C676.494 646.622 678.221 646.956 679.619 647.624L679.619 650.076C678.089 649.109 676.279 648.626 674.187 648.626 672.069 648.626 670.333 649.355 668.98 650.814 667.626 652.273 666.949 654.163 666.949 656.483 666.949 658.874 667.578 660.753 668.835 662.119 670.091 663.486 671.797 664.169 673.95 664.169 675.426 664.169 676.705 663.875 677.786 663.286L677.786 657.986 673.647 657.986 673.647 655.982 680.001 655.982 680.001 664.552C678.103 665.624 675.993 666.16 673.673 666.16 670.975 666.16 668.793 665.29 667.127 663.55 665.462 661.81 664.629 659.507 664.629 656.642 664.629 653.715 665.554 651.313 667.404 649.437 669.254 647.56 671.599 646.622 674.438 646.622ZM571.686 646.108C572.081 646.108 572.417 646.242 572.694 646.51 572.971 646.778 573.11 647.114 573.11 647.518 573.11 647.905 572.971 648.235 572.694 648.507 572.417 648.78 572.081 648.916 571.686 648.916 571.299 648.916 570.969 648.784 570.697 648.52 570.424 648.257 570.288 647.923 570.288 647.518 570.288 647.114 570.424 646.778 570.697 646.51 570.969 646.242 571.299 646.108 571.686 646.108ZM722.578 645.857 724.74 645.857 724.74 654.585 724.793 654.585C725.83 652.88 727.307 652.027 729.223 652.027 732.264 652.027 733.784 653.86 733.784 657.525L733.784 665.844 731.622 665.844 731.622 658.065C731.622 655.253 730.576 653.847 728.484 653.847 727.43 653.847 726.542 654.253 725.821 655.066 725.101 655.879 724.74 656.923 724.74 658.197L724.74 665.844 722.578 665.844ZM645.68 645.567C646.34 645.567 646.862 645.646 647.249 645.805L647.249 647.756C646.827 647.518 646.348 647.4 645.812 647.4 644.3 647.4 643.545 648.353 643.545 650.261L643.545 652.344 646.709 652.344 646.709 654.189 643.545 654.189 643.545 665.844 641.396 665.844 641.396 654.189 639.089 654.189 639.089 652.344 641.396 652.344 641.396 650.155C641.396 648.74 641.804 647.622 642.622 646.8 643.439 645.978 644.459 645.567 645.68 645.567Z" fill="url(#fill19)" fill-rule="evenodd"/><text fill="#000000" fill-opacity="0" font-family="Arial,Arial_MSFontService,sans-serif" font-size="26.4858" x="546.868" y="668.742">Microsoft Graph</text></g></svg>