<svg width="1034" height="368" xmlns="http://www.w3.org/2000/svg" xmlns:xlink="http://www.w3.org/1999/xlink" overflow="hidden"><defs><clipPath id="clip0"><path d="M125 305 1159 305 1159 673 125 673Z" fill-rule="evenodd" clip-rule="evenodd"/></clipPath><clipPath id="clip1"><path d="M185 308 281 308 281 400 185 400Z" fill-rule="evenodd" clip-rule="evenodd"/></clipPath><clipPath id="clip2"><path d="M185 308 281 308 281 400 185 400Z" fill-rule="evenodd" clip-rule="evenodd"/></clipPath><clipPath id="clip3"><path d="M185 308 281 308 281 400 185 400Z" fill-rule="evenodd" clip-rule="evenodd"/></clipPath><clipPath id="clip4"><path d="M185 308 281 308 281 400 185 400Z" fill-rule="evenodd" clip-rule="evenodd"/></clipPath><linearGradient x1="232.606" y1="429.092" x2="232.606" y2="461.092" gradientUnits="userSpaceOnUse" spreadMethod="reflect" id="fill5"><stop offset="0" stop-color="#1A1A1A"/><stop offset="0.02917" stop-color="#1A1A1A"/><stop offset="0.3" stop-color="#1A1A1A"/><stop offset="1" stop-color="#1A1A1A"/></linearGradient><clipPath id="clip6"><path d="M1003 306 1099 306 1099 402 1003 402Z" fill-rule="evenodd" clip-rule="evenodd"/></clipPath><clipPath id="clip7"><path d="M1003 306 1099 306 1099 402 1003 402Z" fill-rule="evenodd" clip-rule="evenodd"/></clipPath><clipPath id="clip8"><path d="M1003 306 1099 306 1099 402 1003 402Z" fill-rule="evenodd" clip-rule="evenodd"/></clipPath><linearGradient x1="1051.08" y1="429.092" x2="1051.08" y2="461.092" gradientUnits="userSpaceOnUse" spreadMethod="reflect" id="fill9"><stop offset="0" stop-color="#1A1A1A"/><stop offset="0.02917" stop-color="#1A1A1A"/><stop offset="0.3" stop-color="#1A1A1A"/><stop offset="1" stop-color="#1A1A1A"/></linearGradient><clipPath id="clip10"><path d="M592 531 688 531 688 622 592 622Z" fill-rule="evenodd" clip-rule="evenodd"/></clipPath><clipPath id="clip11"><path d="M592 531 688 531 688 622 592 622Z" fill-rule="evenodd" clip-rule="evenodd"/></clipPath><clipPath id="clip12"><path d="M592 531 688 531 688 622 592 622Z" fill-rule="evenodd" clip-rule="evenodd"/></clipPath><clipPath id="clip13"><path d="M592 531 688 531 688 622 592 622Z" fill-rule="evenodd" clip-rule="evenodd"/></clipPath><linearGradient x1="639.963" y1="639.844" x2="639.963" y2="671.844" gradientUnits="userSpaceOnUse" spreadMethod="reflect" id="fill14"><stop offset="0" stop-color="#1A1A1A"/><stop offset="0.02917" stop-color="#1A1A1A"/><stop offset="0.3" stop-color="#1A1A1A"/><stop offset="1" stop-color="#1A1A1A"/></linearGradient></defs><g clip-path="url(#clip0)" transform="translate(-125 -305)"><g clip-path="url(#clip1)"><g clip-path="url(#clip2)"><g clip-path="url(#clip3)"><g clip-path="url(#clip4)"><path d="M1388.65 307.12 1388.65 332.113 1301.58 332.113 1301.58 283.535 1388.65 283.535 1388.65 307.12M1381.19 361.683 1376.92 355.347 1313.31 355.347 1304.07 368.372 1386.16 368.372 1381.19 361.683M1329.66 344.082 1360.22 344.082M1345.3 332.466 1345.3 343.731" stroke="#505050" stroke-width="4.46512" stroke-linecap="square" stroke-miterlimit="8" fill="none" fill-rule="evenodd" transform="matrix(1 0 -0 1.00508 -1112.12 25.2683)"/></g></g></g></g><path d="M249.463 448.263 246.207 448.711C245.205 448.852 244.449 449.1 243.939 449.456 243.429 449.812 243.174 450.443 243.174 451.348 243.174 452.007 243.409 452.546 243.88 452.963 244.35 453.381 244.976 453.589 245.758 453.589 246.831 453.589 247.716 453.214 248.415 452.462 249.113 451.711 249.463 450.759 249.463 449.608ZM276.762 443.095C275.374 443.095 274.275 443.568 273.466 444.513 272.658 445.457 272.253 446.76 272.253 448.421 272.253 450.021 272.662 451.282 273.479 452.205 274.297 453.128 275.391 453.589 276.762 453.589 278.16 453.589 279.234 453.137 279.986 452.232 280.737 451.326 281.113 450.039 281.113 448.369 281.113 446.681 280.737 445.38 279.986 444.466 279.234 443.552 278.16 443.095 276.762 443.095ZM207.303 443.095C206.046 443.095 205.035 443.533 204.27 444.407 203.506 445.282 203.124 446.378 203.124 447.696L203.124 449.582C203.124 450.698 203.486 451.645 204.211 452.423 204.936 453.201 205.857 453.589 206.973 453.589 208.283 453.589 209.309 453.088 210.051 452.086 210.794 451.085 211.165 449.691 211.165 447.907 211.165 446.404 210.818 445.227 210.124 444.374 209.43 443.522 208.489 443.095 207.303 443.095ZM191.303 443.095C190.046 443.095 189.035 443.533 188.27 444.407 187.506 445.282 187.124 446.378 187.124 447.696L187.124 449.582C187.124 450.698 187.486 451.645 188.211 452.423 188.936 453.201 189.857 453.589 190.973 453.589 192.283 453.589 193.309 453.088 194.051 452.086 194.794 451.085 195.165 449.691 195.165 447.907 195.165 446.404 194.818 445.227 194.124 444.374 193.43 443.522 192.489 443.095 191.303 443.095ZM263.961 441.592 266.124 441.592 266.124 455.092 263.961 455.092ZM222.961 441.592 225.124 441.592 225.124 455.092 222.961 455.092ZM293.606 441.276C295.082 441.276 296.212 441.753 296.994 442.706 297.776 443.66 298.167 445.038 298.167 446.839L298.167 455.092 296.005 455.092 296.005 447.393C296.005 444.528 294.959 443.095 292.868 443.095 291.787 443.095 290.892 443.502 290.185 444.315 289.477 445.128 289.124 446.154 289.124 447.393L289.124 455.092 286.961 455.092 286.961 441.592 289.124 441.592 289.124 443.834 289.176 443.834C290.196 442.128 291.672 441.276 293.606 441.276ZM276.92 441.276C278.933 441.276 280.504 441.896 281.634 443.135 282.763 444.374 283.328 446.092 283.328 448.29 283.328 450.443 282.719 452.168 281.502 453.464 280.284 454.761 278.652 455.409 276.604 455.409 274.609 455.409 273.016 454.778 271.825 453.517 270.634 452.256 270.039 450.584 270.039 448.501 270.039 446.233 270.658 444.462 271.897 443.188 273.137 441.913 274.811 441.276 276.92 441.276ZM246.866 441.276C250.039 441.276 251.625 442.955 251.625 446.312L251.625 455.092 249.463 455.092 249.463 452.983 249.41 452.983C248.47 454.6 247.085 455.409 245.257 455.409 243.913 455.409 242.86 455.053 242.1 454.341 241.34 453.629 240.959 452.684 240.959 451.506 240.959 448.984 242.445 447.516 245.415 447.103L249.463 446.536C249.463 444.242 248.536 443.095 246.681 443.095 245.055 443.095 243.587 443.649 242.278 444.756L242.278 442.542C243.605 441.698 245.134 441.276 246.866 441.276ZM236.052 441.276C237.239 441.276 238.285 441.496 239.19 441.935L239.19 444.15C238.188 443.447 237.116 443.095 235.973 443.095 234.593 443.095 233.462 443.59 232.578 444.578 231.695 445.567 231.253 446.866 231.253 448.474 231.253 450.056 231.669 451.304 232.499 452.218 233.33 453.132 234.444 453.589 235.841 453.589 237.019 453.589 238.126 453.198 239.164 452.416L239.164 454.473C238.126 455.097 236.896 455.409 235.472 455.409 233.547 455.409 231.994 454.783 230.812 453.53 229.63 452.278 229.039 450.654 229.039 448.659 229.039 446.435 229.676 444.649 230.95 443.3 232.225 441.951 233.925 441.276 236.052 441.276ZM207.843 441.276C209.583 441.276 210.941 441.88 211.917 443.089 212.893 444.297 213.38 445.917 213.38 447.947 213.38 450.206 212.831 452.014 211.732 453.372 210.634 454.73 209.131 455.409 207.224 455.409 205.475 455.409 204.125 454.653 203.176 453.141L203.124 453.141 203.124 461.302 200.961 461.302 200.961 441.592 203.124 441.592 203.124 443.965 203.176 443.965C204.24 442.172 205.795 441.276 207.843 441.276ZM191.843 441.276C193.583 441.276 194.941 441.88 195.917 443.089 196.893 444.297 197.38 445.917 197.38 447.947 197.38 450.206 196.831 452.014 195.732 453.372 194.634 454.73 193.131 455.409 191.224 455.409 189.475 455.409 188.125 454.653 187.176 453.141L187.124 453.141 187.124 461.302 184.961 461.302 184.961 441.592 187.124 441.592 187.124 443.965 187.176 443.965C188.24 442.172 189.795 441.276 191.843 441.276ZM174.395 438.481C174.307 439.017 174.206 439.439 174.092 439.747L171.152 447.802 177.704 447.802 174.738 439.747C174.641 439.483 174.544 439.061 174.448 438.481ZM257.822 437.598 257.822 441.592 261.224 441.592 261.224 443.438 257.822 443.438 257.822 451.045C257.822 451.95 257.976 452.596 258.284 452.983 258.591 453.37 259.101 453.563 259.813 453.563 260.358 453.563 260.828 453.414 261.224 453.115L261.224 454.961C260.714 455.242 260.041 455.382 259.206 455.382 256.842 455.382 255.66 454.064 255.66 451.427L255.66 443.438 253.34 443.438 253.34 441.592 255.66 441.592 255.66 438.296ZM173.314 436.187 175.608 436.187 182.885 455.092 180.433 455.092 178.429 449.793 170.414 449.793 168.528 455.092 166.063 455.092ZM265.069 435.357C265.464 435.357 265.8 435.491 266.077 435.759 266.354 436.027 266.493 436.363 266.493 436.767 266.493 437.154 266.354 437.483 266.077 437.756 265.8 438.028 265.464 438.165 265.069 438.165 264.682 438.165 264.352 438.033 264.08 437.769 263.808 437.505 263.671 437.171 263.671 436.767 263.671 436.363 263.808 436.027 264.08 435.759 264.352 435.491 264.682 435.357 265.069 435.357ZM224.069 435.357C224.464 435.357 224.801 435.491 225.077 435.759 225.354 436.027 225.493 436.363 225.493 436.767 225.493 437.154 225.354 437.483 225.077 437.756 224.801 438.028 224.464 438.165 224.069 438.165 223.682 438.165 223.353 438.033 223.08 437.769 222.808 437.505 222.671 437.171 222.671 436.767 222.671 436.363 222.808 436.027 223.08 435.759 223.353 435.491 223.682 435.357 224.069 435.357ZM216.961 435.106 219.124 435.106 219.124 455.092 216.961 455.092Z" fill="url(#fill5)" fill-rule="evenodd"/><text fill="#000000" fill-opacity="0" font-family="Arial,Arial_MSFontService,sans-serif" font-size="26.1958" x="166.063" y="458.027">Application</text><path d="M4.35944e-07-3 707.479-2.9999 707.479 3.0001-4.35944e-07 3ZM704.479-8.9999 722.479 0.000104987 704.479 9.0001Z" fill="#1A1A1A" transform="matrix(1 0 0 -1 281 354)"/><path d="M596 354C596 340.745 606.745 330 620 330 633.255 330 644 340.745 644 354 644 367.255 633.255 378 620 378 606.745 378 596 367.255 596 354Z" fill="#1A1A1A" fill-rule="evenodd"/><text fill="#FFFFFF" font-family="Consolas,Consolas_MSFontService,sans-serif" font-weight="400" font-size="27" transform="translate(612.395 363)">1</text><g clip-path="url(#clip6)"><g clip-path="url(#clip7)"><g clip-path="url(#clip8)"><path d="M1051 402.002C1048.64 402.002 1046.41 401.08 1044.74 399.406L1005.59 360.261C1003.94 358.612 1003 356.333 1003 354 1003 351.669 1003.94 349.388 1005.59 347.741L1044.74 308.596C1046.41 306.922 1048.64 306 1051 306 1053.37 306 1055.59 306.922 1057.26 308.596L1096.4 347.741C1098.08 349.407 1099 351.633 1099 354 1099 356.367 1098.08 358.593 1096.4 360.265L1057.26 399.406C1055.59 401.08 1053.37 402.002 1051 402.002" fill="#59B4D9"/><path d="M1077.14 346.499C1072.99 346.499 1069.63 349.859 1069.63 354.004 1069.63 355.524 1070.09 356.936 1070.87 358.118L1056 372.987C1055.61 372.71 1055.18 372.48 1054.74 372.271L1054.74 334.337C1056.98 333.039 1058.51 330.643 1058.51 327.867 1058.51 323.722 1055.15 320.362 1051 320.362 1046.86 320.362 1043.5 323.722 1043.5 327.867 1043.5 330.643 1045.02 333.039 1047.26 334.337L1047.26 372.269C1046.84 372.468 1046.43 372.684 1046.05 372.947L1031.16 358.061C1031.92 356.89 1032.37 355.501 1032.37 354.004 1032.37 349.859 1029.01 346.499 1024.86 346.499 1020.72 346.499 1017.36 349.859 1017.36 354.004 1017.36 358.149 1020.72 361.509 1024.86 361.509 1025.72 361.509 1026.54 361.334 1027.31 361.068L1042.96 376.716C1042.51 377.768 1042.26 378.924 1042.26 380.139 1042.26 384.964 1046.17 388.877 1051 388.877 1055.82 388.877 1059.73 384.964 1059.73 380.139 1059.73 378.947 1059.49 377.812 1059.06 376.777L1074.75 361.087C1075.51 361.34 1076.3 361.509 1077.14 361.509 1081.28 361.509 1084.64 358.149 1084.64 354.004 1084.64 349.859 1081.28 346.499 1077.14 346.499Z" fill="#FFFFFF"/><path d="M1080.7 353.968 1077.28 357.394 1049.21 329.328 1052.63 325.902Z" fill="#FFFFFF" fill-opacity="0.5"/><path d="M1049.4 325.924 1052.82 329.351 1024.75 357.422 1021.33 353.996Z" fill="#FFFFFF" fill-opacity="0.5"/><path d="M1056.12 380.139C1056.12 383.011 1053.79 385.34 1050.91 385.34 1048.04 385.34 1045.71 383.011 1045.71 380.139 1045.71 377.267 1048.04 374.938 1050.91 374.938 1053.78 374.938 1056.12 377.267 1056.12 380.139" fill="#B8D432"/><path d="M1055.17 327.867C1055.17 330.173 1053.31 332.041 1051 332.041 1048.69 332.041 1046.83 330.173 1046.83 327.867 1046.83 325.561 1048.69 323.693 1051 323.693 1053.31 323.693 1055.17 325.561 1055.17 327.867" fill="#B8D432"/><path d="M1029.04 354.002C1029.04 356.308 1027.17 358.176 1024.87 358.176 1022.56 358.176 1020.69 356.308 1020.69 354.002 1020.69 351.696 1022.56 349.828 1024.87 349.828 1027.17 349.828 1029.04 351.696 1029.04 354.002" fill="#B8D432"/><path d="M1081.31 354.002C1081.31 356.308 1079.44 358.176 1077.14 358.176 1074.83 358.176 1072.96 356.308 1072.96 354.002 1072.96 351.696 1074.83 349.828 1077.14 349.828 1079.44 349.828 1081.31 351.696 1081.31 354.002" fill="#B8D432"/><path d="M1057.26 308.596C1055.59 306.922 1053.37 306 1051 306 1048.64 306 1046.42 306.922 1044.74 308.596L1005.6 347.741C1003.94 349.388 1003 351.669 1003 354 1003 356.333 1003.94 358.614 1005.6 360.261L1027.76 382.426 1069.45 320.782 1057.26 308.596Z" fill="#FFFFFF" fill-opacity="0.1"/></g></g></g><path d="M1056.29 443.095C1055.27 443.095 1054.41 443.46 1053.7 444.19 1052.98 444.919 1052.55 445.873 1052.38 447.05L1059.67 447.05C1059.66 445.802 1059.36 444.831 1058.77 444.137 1058.17 443.442 1057.35 443.095 1056.29 443.095ZM1026.74 441.592 1028.89 441.592 1028.89 449.318C1028.89 452.166 1029.98 453.589 1032.16 453.589 1033.22 453.589 1034.08 453.201 1034.76 452.423 1035.45 451.645 1035.79 450.628 1035.79 449.371L1035.79 441.592 1037.95 441.592 1037.95 455.092 1035.79 455.092 1035.79 452.957 1035.73 452.957C1034.84 454.591 1033.45 455.409 1031.57 455.409 1028.35 455.409 1026.74 453.493 1026.74 449.661ZM1014.03 441.592 1024.45 441.592 1024.45 442.212 1016.46 453.247 1024.37 453.247 1024.37 455.092 1013.28 455.092 1013.28 454.42 1021.27 443.438 1014.03 443.438ZM1047.78 441.355C1048.34 441.355 1048.77 441.417 1049.07 441.54L1049.07 443.781C1048.7 443.491 1048.15 443.346 1047.44 443.346 1046.52 443.346 1045.74 443.781 1045.12 444.651 1044.51 445.521 1044.2 446.708 1044.2 448.211L1044.2 455.092 1042.03 455.092 1042.03 441.592 1044.2 441.592 1044.2 444.374 1044.25 444.374C1044.56 443.425 1045.03 442.684 1045.66 442.153 1046.29 441.621 1047 441.355 1047.78 441.355ZM1056.33 441.276C1058.1 441.276 1059.47 441.847 1060.43 442.99 1061.4 444.132 1061.88 445.719 1061.88 447.749L1061.88 448.883 1052.35 448.883C1052.39 450.386 1052.79 451.546 1053.56 452.363 1054.34 453.181 1055.4 453.589 1056.76 453.589 1058.28 453.589 1059.67 453.088 1060.95 452.086L1060.95 454.117C1059.76 454.978 1058.19 455.409 1056.24 455.409 1054.33 455.409 1052.84 454.796 1051.75 453.57 1050.66 452.344 1050.11 450.619 1050.11 448.395 1050.11 446.294 1050.71 444.583 1051.9 443.26 1053.09 441.937 1054.57 441.276 1056.33 441.276ZM1079.47 438.481C1079.38 439.017 1079.28 439.439 1079.16 439.747L1076.22 447.802 1082.78 447.802 1079.81 439.747C1079.71 439.483 1079.62 439.061 1079.52 438.481ZM1004.47 438.481C1004.38 439.017 1004.28 439.439 1004.16 439.747L1001.22 447.802 1007.78 447.802 1004.81 439.747C1004.71 439.483 1004.62 439.061 1004.52 438.481ZM1092.54 438.191 1092.54 453.088 1095.36 453.088C1097.84 453.088 1099.77 452.425 1101.15 451.098 1102.53 449.771 1103.22 447.89 1103.22 445.455 1103.22 440.612 1100.64 438.191 1095.49 438.191ZM1090.32 436.187 1095.54 436.187C1102.21 436.187 1105.54 439.259 1105.54 445.402 1105.54 448.32 1104.61 450.665 1102.76 452.436 1100.91 454.207 1098.44 455.092 1095.33 455.092L1090.32 455.092ZM1078.39 436.187 1080.68 436.187 1087.96 455.092 1085.51 455.092 1083.5 449.793 1075.49 449.793 1073.6 455.092 1071.13 455.092ZM1003.39 436.187 1005.68 436.187 1012.96 455.092 1010.51 455.092 1008.5 449.793 1000.49 449.793 998.6 455.092 996.135 455.092Z" fill="url(#fill9)" fill-rule="evenodd"/><text fill="#000000" fill-opacity="0" font-family="Arial,Arial_MSFontService,sans-serif" font-size="19.2217" x="996.135" y="453.006">Azure AD</text><path d="M281.045 351 297.857 351.25 314.759 352.003 331.598 353.258 348.375 355.016 364.946 357.15 381.352 359.788 397.609 362.8 413.572 366.255 429.333 370.085 444.799 374.358 459.862 378.877 474.643 383.844 488.964 389.056 502.918 394.586 516.383 400.436 529.351 406.603 541.801 412.953 553.718 419.633 564.998 426.5 575.713 433.557 585.768 440.889 595.065 448.348 603.736 456.001 611.621 463.879 618.681 471.821 624.991 479.906 630.389 488.175 634.945 496.5 638.516 504.964C638.572 505.096 638.618 505.233 638.654 505.373L641.232 515.326 635.424 516.83 632.846 506.877 632.984 507.286 629.68 499.375 625.361 491.45 620.259 483.594 614.194 475.804 607.379 468.121 599.764 460.499 591.309 453.027 582.232 445.736 572.412 438.568 561.877 431.625 550.782 424.867 539.074 418.297 526.774 412.022 513.992 405.939 500.707 400.164 486.911 394.694 472.732 389.531 458.138 384.623 443.201 380.142 427.917 375.915 412.303 372.12 396.516 368.7 380.398 365.712 364.179 363.1 347.75 360.984 331.152 359.242 314.491 357.997 297.768 357.25 280.955 357ZM646.834 511.878 640.375 530.938 629.003 514.334Z" fill="#1A1A1A"/><path d="M511 408C511 394.745 521.745 384 535 384 548.255 384 559 394.745 559 408 559 421.255 548.255 432 535 432 521.745 432 511 421.255 511 408Z" fill="#1A1A1A" fill-rule="evenodd"/><text fill="#FFFFFF" font-family="Consolas,Consolas_MSFontService,sans-serif" font-weight="400" font-size="27" transform="translate(527.278 417)">2</text><g clip-path="url(#clip10)"><g clip-path="url(#clip11)"><g clip-path="url(#clip12)"><g clip-path="url(#clip13)"><path d="M1538.95 287.957C1538.95 284.664 1541.51 281.878 1545.09 281.878 1548.42 281.878 1551.23 284.664 1551.23 287.957 1551.23 291.502 1548.42 294.29 1545.09 294.29 1541.51 294.29 1538.95 291.502 1538.95 287.957ZM1515.93 318.857C1515.93 323.922 1520.28 328.228 1525.39 328.228 1530.77 328.228 1535.12 323.922 1535.12 318.857 1535.12 313.537 1530.77 309.231 1525.39 309.231 1520.28 309.231 1515.93 313.537 1515.93 318.857ZM1531.28 351.023C1531.28 359.381 1537.93 366.22 1546.37 366.22 1554.82 366.22 1561.72 359.381 1561.72 351.023 1561.72 342.664 1554.82 335.826 1546.37 335.826 1537.93 335.826 1531.28 342.664 1531.28 351.023ZM1550.21 309.74C1550.21 315.311 1554.82 319.616 1560.45 319.616 1565.82 319.616 1570.42 315.311 1570.42 309.74 1570.42 304.419 1565.82 299.861 1560.45 299.861 1554.82 299.861 1550.21 304.419 1550.21 309.74ZM1574.26 342.917C1574.26 351.529 1580.91 358.622 1589.36 358.622 1597.8 358.622 1604.71 351.529 1604.71 342.917 1604.71 334.307 1597.8 327.214 1589.36 327.214 1580.91 327.214 1574.26 334.307 1574.26 342.917ZM1574.26 345.199C1561.47 348.237 1561.47 348.237 1561.47 348.237M1534.86 317.084C1550.72 312.272 1550.72 312.272 1550.72 312.272M1550.98 336.587C1557.37 319.363 1557.37 319.363 1557.37 319.363M1537.93 338.358C1530.51 326.708 1530.51 326.708 1530.51 326.708M1575.29 336.84C1534.09 322.655 1534.09 322.655 1534.09 322.655M1542.02 293.528C1530.77 311.005 1530.77 311.005 1530.77 311.005M1579.63 331.014C1567.1 317.084 1567.1 317.084 1567.1 317.084M1544.58 335.826C1545.09 294.29 1545.09 294.29 1545.09 294.29M1548.16 293.275C1554.56 301.634 1554.56 301.634 1554.56 301.634" stroke="#505050" stroke-width="4.43902" stroke-linecap="square" stroke-miterlimit="8" fill="none" fill-rule="evenodd" transform="matrix(1.00588 0 -0 1 -930.605 251.341)"/></g></g></g></g><path d="M701.08 659.015 697.823 659.463C696.821 659.603 696.066 659.852 695.556 660.208 695.046 660.564 694.791 661.194 694.791 662.1 694.791 662.759 695.026 663.297 695.496 663.715 695.967 664.132 696.593 664.341 697.375 664.341 698.447 664.341 699.333 663.965 700.032 663.214 700.73 662.462 701.08 661.511 701.08 660.359ZM712.92 653.847C711.663 653.847 710.652 654.284 709.887 655.158 709.123 656.033 708.74 657.129 708.74 658.448L708.74 660.333C708.74 661.449 709.103 662.396 709.828 663.174 710.553 663.952 711.474 664.341 712.59 664.341 713.9 664.341 714.926 663.84 715.668 662.838 716.411 661.836 716.782 660.443 716.782 658.659 716.782 657.156 716.435 655.978 715.741 655.125 715.047 654.273 714.106 653.847 712.92 653.847ZM631.379 653.847C629.99 653.847 628.892 654.319 628.083 655.264 627.275 656.209 626.87 657.512 626.87 659.173 626.87 660.772 627.279 662.034 628.096 662.956 628.914 663.879 630.008 664.341 631.379 664.341 632.777 664.341 633.851 663.888 634.602 662.983 635.354 662.078 635.73 660.79 635.73 659.12 635.73 657.433 635.354 656.132 634.602 655.218 633.851 654.304 632.777 653.847 631.379 653.847ZM604.379 653.847C602.99 653.847 601.892 654.319 601.083 655.264 600.275 656.209 599.87 657.512 599.87 659.173 599.87 660.772 600.279 662.034 601.096 662.956 601.914 663.879 603.008 664.341 604.379 664.341 605.777 664.341 606.851 663.888 607.602 662.983 608.354 662.078 608.73 660.79 608.73 659.12 608.73 657.433 608.354 656.132 607.602 655.218 606.851 654.304 605.777 653.847 604.379 653.847ZM570.578 652.344 572.74 652.344 572.74 665.844 570.578 665.844ZM689.326 652.106C689.889 652.106 690.319 652.168 690.618 652.291L690.618 654.532C690.24 654.242 689.695 654.097 688.984 654.097 688.061 654.097 687.289 654.532 686.67 655.402 686.05 656.272 685.74 657.459 685.74 658.962L685.74 665.844 683.578 665.844 683.578 652.344 685.74 652.344 685.74 655.125 685.793 655.125C686.101 654.176 686.571 653.436 687.204 652.904 687.837 652.372 688.544 652.106 689.326 652.106ZM595.326 652.106C595.889 652.106 596.32 652.168 596.618 652.291L596.618 654.532C596.24 654.242 595.695 654.097 594.984 654.097 594.061 654.097 593.289 654.532 592.67 655.402 592.05 656.272 591.74 657.459 591.74 658.962L591.74 665.844 589.578 665.844 589.578 652.344 591.74 652.344 591.74 655.125 591.793 655.125C592.101 654.176 592.571 653.436 593.204 652.904 593.837 652.372 594.544 652.106 595.326 652.106ZM713.46 652.027C715.2 652.027 716.558 652.632 717.534 653.84 718.509 655.049 718.997 656.668 718.997 658.698 718.997 660.957 718.448 662.765 717.349 664.123 716.251 665.481 714.748 666.16 712.84 666.16 711.091 666.16 709.742 665.404 708.793 663.893L708.74 663.893 708.74 672.053 706.578 672.053 706.578 652.344 708.74 652.344 708.74 654.717 708.793 654.717C709.857 652.924 711.412 652.027 713.46 652.027ZM698.483 652.027C701.655 652.027 703.242 653.706 703.242 657.063L703.242 665.844 701.08 665.844 701.08 663.734 701.027 663.734C700.087 665.352 698.702 666.16 696.874 666.16 695.529 666.16 694.477 665.804 693.717 665.092 692.956 664.38 692.576 663.435 692.576 662.258 692.576 659.735 694.062 658.268 697.032 657.854L701.08 657.288C701.08 654.994 700.152 653.847 698.298 653.847 696.672 653.847 695.204 654.4 693.895 655.508L693.895 653.293C695.222 652.449 696.751 652.027 698.483 652.027ZM631.537 652.027C633.55 652.027 635.121 652.647 636.25 653.886 637.38 655.125 637.944 656.844 637.944 659.041 637.944 661.194 637.336 662.919 636.119 664.216 634.901 665.512 633.269 666.16 631.221 666.16 629.226 666.16 627.633 665.529 626.442 664.268 625.251 663.007 624.655 661.335 624.655 659.252 624.655 656.984 625.275 655.213 626.514 653.939 627.754 652.664 629.428 652.027 631.537 652.027ZM617.955 652.027C619.124 652.027 620.17 652.229 621.093 652.634L621.093 654.822C620.1 654.172 618.957 653.847 617.665 653.847 617.261 653.847 616.896 653.893 616.571 653.985 616.246 654.077 615.967 654.207 615.734 654.374 615.501 654.541 615.321 654.741 615.193 654.974 615.066 655.207 615.002 655.464 615.002 655.745 615.002 656.097 615.066 656.391 615.193 656.628 615.321 656.866 615.508 657.077 615.754 657.261 616 657.446 616.299 657.613 616.65 657.762 617.002 657.912 617.402 658.074 617.85 658.25 618.447 658.478 618.984 658.714 619.458 658.955 619.933 659.197 620.337 659.469 620.671 659.773 621.005 660.076 621.262 660.425 621.442 660.821 621.622 661.216 621.713 661.686 621.713 662.231 621.713 662.899 621.565 663.479 621.271 663.972 620.977 664.464 620.583 664.872 620.091 665.198 619.599 665.523 619.032 665.765 618.39 665.923 617.749 666.081 617.076 666.16 616.373 666.16 614.984 666.16 613.78 665.892 612.761 665.356L612.761 663.036C613.939 663.906 615.235 664.341 616.65 664.341 618.549 664.341 619.498 663.708 619.498 662.442 619.498 662.082 619.416 661.777 619.254 661.526 619.091 661.276 618.872 661.054 618.595 660.86 618.318 660.667 617.993 660.493 617.619 660.34 617.246 660.186 616.843 660.025 616.413 659.858 615.815 659.621 615.29 659.382 614.837 659.14 614.385 658.898 614.007 658.626 613.704 658.322 613.4 658.019 613.172 657.674 613.018 657.288 612.864 656.901 612.787 656.448 612.787 655.93 612.787 655.297 612.932 654.737 613.222 654.249 613.512 653.761 613.899 653.352 614.383 653.023 614.866 652.693 615.417 652.445 616.037 652.278 616.657 652.111 617.296 652.027 617.955 652.027ZM604.537 652.027C606.55 652.027 608.121 652.647 609.25 653.886 610.38 655.125 610.944 656.844 610.944 659.041 610.944 661.194 610.336 662.919 609.119 664.216 607.901 665.512 606.269 666.16 604.221 666.16 602.226 666.16 600.633 665.529 599.442 664.268 598.251 663.007 597.655 661.335 597.655 659.252 597.655 656.984 598.275 655.213 599.514 653.939 600.754 652.664 602.428 652.027 604.537 652.027ZM583.669 652.027C584.856 652.027 585.902 652.247 586.807 652.686L586.807 654.901C585.805 654.198 584.733 653.847 583.59 653.847 582.21 653.847 581.079 654.341 580.195 655.33 579.312 656.319 578.87 657.617 578.87 659.226 578.87 660.808 579.286 662.056 580.116 662.97 580.947 663.884 582.061 664.341 583.458 664.341 584.636 664.341 585.743 663.95 586.78 663.167L586.78 665.224C585.743 665.848 584.513 666.16 583.089 666.16 581.164 666.16 579.611 665.534 578.429 664.281 577.247 663.029 576.655 661.405 576.655 659.41 576.655 657.186 577.293 655.4 578.567 654.051 579.841 652.702 581.542 652.027 583.669 652.027ZM652.439 648.349 652.439 652.344 655.841 652.344 655.841 654.189 652.439 654.189 652.439 661.796C652.439 662.702 652.593 663.348 652.901 663.734 653.208 664.121 653.718 664.314 654.43 664.314 654.975 664.314 655.445 664.165 655.841 663.866L655.841 665.712C655.331 665.993 654.658 666.134 653.823 666.134 651.459 666.134 650.277 664.815 650.277 662.179L650.277 654.189 647.957 654.189 647.957 652.344 650.277 652.344 650.277 649.048ZM546.868 646.938 549.795 646.938 555.596 660.122C556.044 661.133 556.334 661.889 556.466 662.39L556.545 662.39C556.923 661.352 557.226 660.579 557.455 660.069L563.374 646.938 566.143 646.938 566.143 665.844 563.941 665.844 563.941 653.161C563.941 652.159 564.003 650.933 564.126 649.483L564.073 649.483C563.862 650.335 563.673 650.946 563.506 651.315L557.046 665.844 555.965 665.844 549.518 651.421C549.334 650.999 549.145 650.353 548.951 649.483L548.899 649.483C548.969 650.239 549.004 651.474 549.004 653.187L549.004 665.844 546.868 665.844ZM674.438 646.622C676.494 646.622 678.221 646.956 679.619 647.624L679.619 650.076C678.089 649.109 676.279 648.626 674.187 648.626 672.069 648.626 670.333 649.355 668.98 650.814 667.626 652.273 666.949 654.163 666.949 656.483 666.949 658.874 667.578 660.753 668.835 662.119 670.091 663.486 671.797 664.169 673.95 664.169 675.426 664.169 676.705 663.875 677.786 663.286L677.786 657.986 673.647 657.986 673.647 655.982 680.001 655.982 680.001 664.552C678.103 665.624 675.993 666.16 673.673 666.16 670.975 666.16 668.793 665.29 667.127 663.55 665.462 661.81 664.629 659.507 664.629 656.642 664.629 653.715 665.554 651.313 667.404 649.437 669.254 647.56 671.599 646.622 674.438 646.622ZM571.686 646.108C572.081 646.108 572.417 646.242 572.694 646.51 572.971 646.778 573.11 647.114 573.11 647.518 573.11 647.905 572.971 648.235 572.694 648.507 572.417 648.78 572.081 648.916 571.686 648.916 571.299 648.916 570.969 648.784 570.697 648.52 570.424 648.257 570.288 647.923 570.288 647.518 570.288 647.114 570.424 646.778 570.697 646.51 570.969 646.242 571.299 646.108 571.686 646.108ZM722.578 645.857 724.74 645.857 724.74 654.585 724.793 654.585C725.83 652.88 727.307 652.027 729.223 652.027 732.264 652.027 733.784 653.86 733.784 657.525L733.784 665.844 731.622 665.844 731.622 658.065C731.622 655.253 730.576 653.847 728.484 653.847 727.43 653.847 726.542 654.253 725.821 655.066 725.101 655.879 724.74 656.923 724.74 658.197L724.74 665.844 722.578 665.844ZM645.68 645.567C646.34 645.567 646.862 645.646 647.249 645.805L647.249 647.756C646.827 647.518 646.348 647.4 645.812 647.4 644.3 647.4 643.545 648.353 643.545 650.261L643.545 652.344 646.709 652.344 646.709 654.189 643.545 654.189 643.545 665.844 641.396 665.844 641.396 654.189 639.089 654.189 639.089 652.344 641.396 652.344 641.396 650.155C641.396 648.74 641.804 647.622 642.622 646.8 643.439 645.978 644.459 645.567 645.68 645.567Z" fill="url(#fill14)" fill-rule="evenodd"/><text fill="#000000" fill-opacity="0" font-family="Arial,Arial_MSFontService,sans-serif" font-size="26.4858" x="546.868" y="668.742">Microsoft Graph</text></g></svg>